<?xml version="1.0" encoding="utf-8"?>
<!-- Generator: Adobe Illustrator 19.1.0, SVG Export Plug-In . SVG Version: 6.00 Build 0)  -->
<svg version="1.1" id="Layer_1" xmlns="http://www.w3.org/2000/svg" xmlns:xlink="http://www.w3.org/1999/xlink" x="0px" y="0px"
	 viewBox="0 0 1280 200" style="enable-background:new 0 0 1280 200;" xml:space="preserve">
<style type="text/css">
	.st0{fill:none;stroke:#333333;stroke-width:3;}
</style>
<g>
	<path class="st0" d="M463.5,103.4c-7.3-6.5-7.1-10.4,0.8-11.8c0.8-0.1,1.5-0.3,2.1-0.4c0.5-2,1-4.1,1.5-6.2c0.5-2.1,1-4.2,1.5-6.2
		c1.5-6.3,4.8-8.4,9.9-6.1c2,0.9,3.2,2,3.4,3.3c0.2,1.3,0.1,2.8-0.3,4.3c-0.6,2-1.1,4.4-1.8,7.2c3.8-1.2,6.9-2.4,9.4-3.6
		c4.7-2.2,6.2-0.6,4.5,4.8c-1,3.3-3,6-6,8.1c-3,2.1-6.6,3.9-10.8,5.3c-0.6,3.5-1.1,6.4-1.5,8.5c-2.7,16.4,0.2,19.6,8.7,9.5
		c0.1,0,0.2,0,0.3,0c2.6-3.4,5.1-5.5,7.3-6.4c2.2-0.9,3,0.5,2.2,4.4c-1.1,5.4-2.8,9.8-5.2,13.3c-2.4,3.5-4.9,6.6-7.6,9.3
		c-3.7,3.6-6.7,5.1-9.2,4.7c-2.5-0.4-4.5-1.4-6.1-3c-3.3-3.3-5.2-8-5.9-14.2c-0.7-6.2,0.2-14.2,2.7-24.1L463.5,103.4z"/>
	<path class="st0" d="M495.7,139.9c-1.5-1.9-2.2-3.8-2-5.6c0.2-1.8,0.8-3.9,1.7-6.2c2.2-5.4,3.8-11.4,4.8-17.9
		c1-6.5,2.1-13.1,3.2-19.9c1.4-9,2.8-18.1,4.3-27.2c1.5-9.1,2.8-18.1,4-27.2c0.4-3.4,2.4-4,6.1-2c4.6,2.6,7.2,5.9,7.9,9.9
		c0.7,4,0.5,8.3-0.7,12.8c-2,7.5-4,15.1-5.8,22.7c-1.8,7.6-3.8,15.2-5.9,22.7c-1.9,6.8-2.6,11-2.2,12.4c0.5,1.4,3.4-1.4,8.9-8.4
		c7.5-9.7,14.3-12.1,20.3-7.3c2.6,2.2,3.8,4.9,3.6,8.1s-0.8,6.8-1.6,10.7c-0.9,3.8-0.7,5.7,0.5,5.6c1.2-0.1,3-1.3,5.4-3.6
		c4.9-4.6,6.9-4,6,1.9c-1,6.1-3.1,11-6.2,14.6c-3.1,3.6-6.2,5.6-9.3,5.9c-5.2,0.6-8.9-0.8-10.9-4.2c-2.1-3.4-2.2-8.4-0.5-14.9
		c0.8-3.3,0.9-5.4,0.2-6.1c-0.7-0.8-2.3,0.2-4.8,2.9c-3.3,3.6-6.4,7.2-9.4,11c-3,3.8-5.9,7.5-8.8,11.3c-1.1,1.4-2.3,2.1-3.5,2.1
		C499.6,144.1,497.9,142.7,495.7,139.9z"/>
	<path class="st0" d="M576.4,143.2c-5.4-0.1-9.9-2-13.6-5.8c-3.7-3.8-5.6-8.8-5.5-15.1c0-6.4,2.9-12.7,8.5-18.9
		c5.6-6.2,11.6-9.4,18-9.4c5.2,0,9.4,1.5,12.6,4.4c3.2,2.9,4.6,6.2,4,9.9c-0.8,5.4-3.5,8.9-8.1,10.5c-4.6,1.6-9.7,2-15.2,1.2
		c-1.6-0.2-2.5,0.2-2.8,1.3c-0.6,2.6-0.6,4.4,0.1,5.4c1.8,2.8,4.4,4.4,7.8,4.7c3.4,0.3,7.9-1.2,13.6-4.5c1.1-0.6,2-0.6,2.6,0
		c0.6,0.7,0.7,1.8,0.2,3.3c-0.9,2.7-3.6,5.5-8.3,8.6C585.7,141.8,581,143.3,576.4,143.2z M585.2,104.3c-4.1,0.5-7,2.3-8.8,5.6
		c-1.6,2.8-0.4,3.9,3.5,3.3c0,0,0.1,0,0.1,0c2-0.4,3.8-1,5.5-1.9c1.7-0.9,2.8-2.3,3.4-4.3C589.7,104.9,588.4,104,585.2,104.3z"/>
	<path class="st0" d="M656.2,64.1c-3.2-0.3-6.2-1.2-8.9-2.9c-2.9-1.7-4.2-3.7-4-6.1c0.5-4.4,3.5-6.8,9-7.1c0.1,0,0.2,0,0.4,0
		c0.1,0,0.2,0,0.4,0c8.3-0.2,16.6-0.4,24.9-0.6c8.3-0.2,16.7-0.4,25-0.6c0,0,0.1,0,0.3,0c0.1,0,0.2,0,0.3,0c4.5,0,7.7,0.5,9.6,1.5
		c1.8,1,2.9,2.9,3.1,5.7c0.4,5,0.2,9.6-0.4,13.8s-1.5,8.4-2.5,12.6c-0.6,2.4-1.5,3.7-2.7,3.8c-1.1,0.1-2.4-0.2-3.8-1
		c-3-1.5-4.1-4-3.2-7.5c0.8-3.4,0.7-6.1-0.1-8.3c-0.9-2.1-3.1-3.2-6.8-3.3c-4-0.1-7.9-0.2-11.8-0.3c-3.9-0.1-7.8-0.1-11.7-0.1
		l-5.4,22.4c3.1,0.3,5.8,0.2,8.1-0.4c2.3-0.6,4-2.1,5.2-4.7c0.6-1.4,1.3-2.5,2.1-3.4c0.8-0.9,2.6-1.2,5.3-0.8c4.2,0.7,5.6,3,4.2,6.9
		c-1.3,3.7-2.4,7.5-3.4,11.3c-1,3.8-1.8,7.3-2.5,10.7c-0.5,2.5-1.5,4.7-2.9,6.5c-1.4,1.8-3.1,2.6-5.2,2.4c-1.5-0.2-2.6-1-3.1-2.5
		c-0.5-1.5-0.6-3.2-0.3-5.1c0.6-4.3-1.4-6.3-6.1-6.1c-0.9,0-1.8,0.1-2.6,0.2c-0.9,0.1-1.7,0.1-2.5,0.2l-6.6,27.8
		c4,0.3,7.9,0.4,11.7,0.5s8,0.1,12.6,0c3.8-0.1,6.7-1.3,8.7-3.7c2-2.4,3.7-5.3,5.2-8.9c1.5-3.7,3.3-6.1,5.5-7.1
		c1.5-0.7,2.7-0.4,3.6,0.9c0.9,1.3,1.2,3.2,0.9,5.6c-0.5,4.4-1,8.2-1.6,11.4c-0.6,3.2-1.3,6.8-2.4,10.9c-0.8,2.9-2.2,4.8-4.2,5.8
		c-2.1,1-5.4,1.5-9.9,1.5c-0.1,0-0.2,0-0.3,0c-0.1,0-0.2,0-0.3,0c-8.5-0.1-15.2-0.2-19.8-0.5c-4.7-0.2-8.4-0.5-11.1-0.7
		c-2.7-0.2-4.9-0.4-6.5-0.4c-1.6-0.1-3.6,0-6,0.3c-2.8,0.3-5.2-0.1-7.2-1.2c-2-1.1-3-3.3-3.1-6.8c0-1.3,0.4-2.8,1.2-4.5
		c0.8-1.7,1.9-2.9,3.3-3.6c1.6-0.8,3.2-1.3,4.9-1.3c3.1-10.3,5.7-20.8,8.1-31.4C653.1,85.7,654.9,75,656.2,64.1z"/>
	<path class="st0" d="M711.1,110.5c-1.4-3-1.7-5.9-0.9-8.6c0.9-2.8,2.4-4.2,4.6-4.4c2.9-0.1,6,1,9.3,3.4c3.2,2.4,4.2,6.6,2.7,12.7
		c-1.1,5-0.2,5.7,2.9,2.1c7.5-8.9,13-14.1,16.5-15.5c3.5-1.4,6.3-1.2,8.6,0.6c2.6,2.2,4,4.8,4,7.9c0,3.1-0.7,6.4-2.1,10.1
		c-1.3,3.2-1.5,5.2-0.7,6.1c0.8,0.9,2.8-0.3,6-3.5c4.7-4.7,6.3-3.2,5,4.3c-0.6,3.5-1.9,6.4-3.8,8.8c-1.9,2.4-4,4.4-6.5,6
		c-6.1,4.1-10.7,3-13.8-3.2c-2.5-5-2.7-10.2-0.6-15.5c2.1-5.3,0.8-5.8-4-1.7c-4,3.5-7.5,7.1-10.4,10.8c-3,3.7-5.7,7.4-8.3,11.2
		c-1.7,2.5-4.1,2.3-7.3-0.8c-2.8-2.7-3.3-6.4-1.5-11.2C713.7,122.6,713.8,116,711.1,110.5z"/>
	<path class="st0" d="M803,131.2c-2.6,2.7-5.2,5.1-8,7.2c-2.7,2.1-5.7,3.5-8.9,4c-4,0.7-7.6-0.6-11-3.8c-3.4-3.2-5-6.7-4.8-10.5
		c0.2-5.3,1.8-10.8,4.9-16.5c3.1-5.7,7.9-10.4,14.5-14c3.7-2.1,7.1-2.5,10.1-1.1s5.2,3,6.5,5c0.3-2.8,1.1-8,2.3-15.7
		c1.2-7.6,2.6-15.2,4.3-22.7c2.2-9.8,4.2-16.6,6.2-20.5c2-3.8,4.7-4.4,8-1.6c3,2.5,4.2,6.4,3.5,11.6c-0.7,5.2-2.9,14.2-6.5,27.2
		c-1.1,3.9-2.1,7.6-2.8,11c-0.7,3.4-1.3,6.4-1.8,9.1c-0.3,1.3-0.7,3.2-1.2,5.8s-1.1,5.2-1.5,7.8c-1.1,6.4-0.9,10.5,0.6,12.2
		c1.6,1.8,4.6,0.6,9-3.7c1-1,1.9-1.2,2.7-0.7c0.8,0.5,1.1,1.6,0.9,3.4c-1.4,11-5.6,16.7-12.4,17C810.7,142,805.9,138.5,803,131.2z
		 M798.6,109.1c-2-0.3-4.1,0-6.2,1c-2.1,1-3.8,2.8-5.2,5.4c-1.7,3.1-2.2,5.8-1.4,8s2.4,3.3,5,3.3c4.7,0,8.2-2.4,10.5-7.1
		c1-2.2,1.3-4.4,0.9-6.7S800.6,109.3,798.6,109.1z"/>
</g>
</svg>
