<?xml version="1.0" encoding="utf-8"?>
<!-- Generator: Adobe Illustrator 19.1.0, SVG Export Plug-In . SVG Version: 6.00 Build 0)  -->
<svg version="1.1" id="Layer_1" xmlns="http://www.w3.org/2000/svg" xmlns:xlink="http://www.w3.org/1999/xlink" x="0px" y="0px"
	 viewBox="0 0 1280 200" style="enable-background:new 0 0 1280 200;" xml:space="preserve">
<style type="text/css">
	.st0{enable-background:new    ;}
	.st1{fill:none;stroke:#3C0006;stroke-width:2;stroke-miterlimit:10;}
</style>
<g class="st0">
	<path class="st1" d="M199.4,88.4c0,0.7-0.3,1.7-0.8,2.9c-0.5,1.3-1.3,2.5-2.2,3.7c-1,1.2-2.1,2.3-3.4,3.2c-1.3,0.9-2.8,1.3-4.5,1.3
		c-0.4,0-0.9,0-1.5-0.1c-0.6-0.1-1.2-0.2-1.7-0.4c-0.6-0.2-1-0.6-1.4-1c-0.4-0.4-0.6-1-0.6-1.7c0-0.4,0.2-0.8,0.5-1.5
		c0.4-0.6,0.7-1.3,1.1-2.1s0.8-1.5,1.1-2.2c0.4-0.7,0.5-1.3,0.5-1.8c0-1.3-0.9-2.3-2.8-2.9c-1.9-0.6-5-0.9-9.4-0.9
		c-4.4,0.2-8.4,0.4-11.9,0.8c-3.5,0.4-6.8,0.8-9.8,1.4c-3,0.6-5.8,1.2-8.4,2c-2.6,0.7-5.2,1.5-7.7,2.4c-2.5,0.8-5.1,1.7-7.7,2.7
		c-2.6,1-5.3,1.9-8.3,2.9c-0.3,0.1-0.5,0.2-0.8,0.2c-0.3,0.1-0.5,0.1-0.7,0.1c-0.6,0-1.2-0.1-1.7-0.4c-0.5-0.3-0.9-0.6-1.3-1.1
		c-0.4-0.5-0.7-1-0.9-1.6c-0.2-0.6-0.3-1.2-0.3-1.8c0-1,0.8-2.1,2.5-3.4c1.6-1.3,3.9-2.5,6.7-3.8c2.8-1.3,6.2-2.5,10-3.8
		c3.9-1.2,8-2.3,12.5-3.3c4.5-1,9.1-1.7,14-2.3c4.8-0.6,9.7-0.8,14.5-0.8c4.2,0,7.8,0.3,10.8,1c3,0.7,5.5,1.6,7.5,2.7
		c2,1.2,3.5,2.6,4.4,4.2C198.9,84.7,199.4,86.5,199.4,88.4z M131.2,156.7c-0.6,1.2-1.3,2.2-2.1,3.1c-0.8,0.9-1.7,1.6-2.6,2.2
		c-0.9,0.6-1.9,1-2.9,1.3c-1,0.3-1.9,0.4-2.7,0.4c-1.2,0-2.3-0.3-3.2-1c-0.9-0.6-1.3-1.6-1.3-2.8c0-0.4,0-0.9,0.1-1.4
		c0.1-0.5,0.3-1.1,0.6-1.7c3-6.1,5.9-12,8.8-17.6c2.9-5.6,5.8-10.9,8.5-15.8s5.3-9.4,7.8-13.4c2.5-4,4.7-7.5,6.7-10.3
		c2-2.9,3.7-5.1,5.1-6.6c1.4-1.6,2.5-2.3,3.1-2.3c1.4,0,2.4,0.4,3,1.2c0.7,0.8,1,1.7,1,2.7c0,0.9-0.2,1.7-0.6,2.6
		c-1,2-2.1,4.2-3.3,6.7c-1.2,2.5-2.5,5.2-3.9,8c-1.4,2.8-2.8,5.7-4.3,8.8c-1.5,3-2.9,6-4.4,9c-1.4,3-2.9,5.9-4.2,8.6
		c-1.4,2.8-2.7,5.4-3.9,7.7c-1.2,2.4-2.3,4.5-3.2,6.3C132.6,154.2,131.8,155.7,131.2,156.7z"/>
	<path class="st1" d="M169.9,150.2c0.9-2,2-4.2,3.2-6.6c1.2-2.4,2.4-4.8,3.6-7.2c1.2-2.4,2.4-4.7,3.5-6.8c1.1-2.2,2-4,2.7-5.5
		l19.3-37.9c0.2-0.5,0.6-1,1.1-1.5c0.5-0.5,1-0.9,1.7-1.3c0.6-0.4,1.3-0.7,2-0.9c0.7-0.2,1.4-0.3,2.1-0.3c1.7,0,2.9,0.3,3.6,1
		c0.7,0.6,1,1.4,1,2.4c0,0.9-0.2,1.8-0.6,2.7c-0.4,1-0.9,1.8-1.5,2.7c-1.7,2.9-3.4,5.9-4.9,8.8s-3.2,6-4.7,9c-1.6,3-3.2,6-4.8,9
		c-1.6,3-3.3,5.9-5,8.8c1.1-1.1,2.2-2.1,3.5-3.3c1.2-1.1,2.6-2.2,4-3.1c1.4-0.9,3-1.7,4.7-2.3c1.7-0.6,3.6-0.9,5.7-0.9
		c1.2,0,2.4,0.1,3.6,0.4c1.1,0.2,2.1,0.6,3,1.1c0.9,0.5,1.5,1.2,2,2.2c0.5,0.9,0.8,2,0.8,3.4c0,1.8-0.3,3.4-0.8,4.8
		c-0.5,1.5-1.2,2.8-2,4.1c-0.8,1.3-1.7,2.5-2.7,3.7c-1,1.2-1.9,2.4-2.8,3.6c-0.9,1.2-1.6,2.5-2.3,3.8s-1,2.8-1.2,4.3
		c0,0.1,0,0.2,0,0.2c0,0.1,0,0.2,0,0.2c0,0.8,0.3,1.3,0.8,1.5s1.2,0.3,2,0.3c1.1,0,2.2-0.2,3.4-0.6c1.2-0.4,2.4-1,3.6-1.6
		c1.2-0.7,2.5-1.4,3.7-2.3c1.2-0.9,2.4-1.7,3.5-2.6c1.1-0.9,2.1-1.8,3.1-2.6c0.9-0.8,1.7-1.6,2.4-2.2c0.4-0.3,0.7-0.5,1.1-0.7
		c0.4-0.2,0.8-0.2,1.1-0.2c0.7,0,1.3,0.3,1.8,0.8c0.5,0.5,0.7,1.2,0.7,2.1c0,0.8-0.3,1.8-0.8,2.8c-0.6,1.1-1.5,2.1-2.9,3.2
		c-2.1,1.9-4.3,3.7-6.5,5.4c-2.2,1.7-4.5,3.2-6.7,4.6c-2.3,1.3-4.5,2.4-6.7,3.2c-2.2,0.8-4.4,1.2-6.6,1.2c-2.8,0-5-0.6-6.7-1.9
		c-1.7-1.3-2.5-3.3-2.5-6c0-2,0.3-3.9,1-5.6c0.7-1.8,1.5-3.5,2.5-5.1c1-1.7,2.1-3.2,3.2-4.8c1.1-1.5,2.1-3,3-4.5
		c0.5-0.7,0.8-1.3,1.1-1.8c0.3-0.6,0.4-1.2,0.4-1.8c0-0.6-0.2-1.1-0.5-1.4c-0.3-0.4-0.8-0.6-1.5-0.6c-2.3,0-4.4,0.6-6.4,1.7
		c-1.9,1.1-3.7,2.6-5.4,4.3c-1.6,1.8-3.2,3.7-4.6,5.8c-1.4,2.1-2.7,4.1-3.9,6c-0.5,0.9-1.1,1.8-1.7,2.9c-0.6,1.1-1.1,2.2-1.8,3.4
		c-0.6,1.2-1.2,2.3-1.9,3.5c-0.7,1.1-1.4,2.2-2.1,3.1c-0.7,0.9-1.5,1.6-2.3,2.2c-0.8,0.5-1.6,0.8-2.5,0.8c-1.4,0-2.4-0.4-3.2-1.2
		c-0.7-0.8-1.1-1.8-1.1-3c0-0.9,0.2-1.8,0.5-2.8C168.7,152.9,169.2,151.7,169.9,150.2z"/>
	<path class="st1" d="M266.3,117c3.2,0,5.6,0.8,7.2,2.3c1.6,1.6,2.4,3.7,2.4,6.5c0,1.6-0.4,3.3-1.3,5.1c-0.9,1.8-2.3,3.6-4.4,5.5
		s-4.9,3.7-8.4,5.7c-3.5,1.9-7.9,3.9-13.2,5.8c0.2,1.1,0.8,2,1.8,2.7c1,0.6,2.4,1,4,1c1.8,0,3.7-0.3,5.7-0.8c2-0.5,4.1-1.2,6.1-2
		c2-0.8,4-1.7,5.9-2.7c1.9-1,3.6-1.9,5.2-2.7c1.5-0.9,2.8-1.6,3.9-2.2c1-0.6,1.7-1,2.1-1.2c0.4-0.2,0.7-0.4,1-0.4
		c0.3,0,0.6-0.1,0.8-0.1c0.5,0,0.9,0.1,1.2,0.3c0.3,0.2,0.6,0.5,0.8,0.8c0.2,0.3,0.4,0.6,0.4,0.9c0.1,0.3,0.1,0.6,0.1,0.8
		c0,0.4,0,0.8-0.1,1.3c-0.1,0.5-0.4,1-0.9,1.7c-0.2,0.2-0.8,0.7-2,1.6c-1.1,0.9-2.5,1.9-4.3,3c-1.8,1.2-3.8,2.4-6.1,3.7
		c-2.3,1.3-4.8,2.5-7.4,3.6c-2.6,1.1-5.3,2-8.1,2.7c-2.8,0.7-5.6,1.1-8.3,1.1c-2.3,0-4.4-0.4-6.2-1.3c-1.8-0.9-3.3-2.1-4.6-3.6
		c-1.3-1.5-2.2-3.3-2.9-5.3c-0.7-2-1-4.1-1-6.2c0-1.7,0.3-3.5,1-5.5c0.7-2,1.6-4,2.9-6c1.2-2,2.8-4,4.6-5.9c1.8-1.9,3.8-3.6,6.1-5.1
		c2.3-1.5,4.7-2.7,7.4-3.6C260.4,117.4,263.3,117,266.3,117z M264.2,125c-0.2,0-0.4-0.1-0.5-0.1c-0.2,0-0.3,0-0.5,0
		c-1.5,0-2.9,0.3-4.1,0.9c-1.3,0.6-2.5,1.4-3.5,2.3c-1.1,1-2,2-2.9,3.2c-0.8,1.2-1.6,2.4-2.2,3.6c-0.7,1.2-1.2,2.3-1.7,3.4
		c-0.4,1.1-0.8,2-1,2.7c1.4-0.7,2.8-1.5,4.2-2.4c1.5-0.9,2.8-1.8,4.1-2.6c1.3-0.8,2.4-1.6,3.4-2.2c1-0.7,1.6-1.1,2-1.3
		c1.8-1.1,3-2.1,3.6-3.1c0.7-1,1-1.8,1-2.5c0-0.6-0.2-1.1-0.6-1.4C265.1,125.3,264.7,125.1,264.2,125z"/>
	<path class="st1" d="M413.8,89.9c-1.9,10.4-7.1,24.1-15.8,41.1c-2.4,4.8-4.5,9.1-6.4,12.7c-1.9,3.7-3.7,6.7-5.4,9.2
		c-1.7,2.5-3.4,4.3-5.2,5.6c-1.7,1.2-3.6,1.9-5.7,1.9c-1.4,0-2.7-0.3-3.7-1.1c-1-0.7-1.9-2.1-2.6-4.1c-0.7-2-1.4-4.8-1.9-8.4
		c-0.5-3.6-1-8.4-1.3-14.2l-13,19.1c-1.2,1.7-2.3,3.2-3.3,4.3c-1,1.2-2,2.1-3,2.9s-2,1.2-3.1,1.5c-1.1,0.3-2.2,0.5-3.3,0.5
		c-1.7,0-3.1-0.5-4.2-1.5c-1.1-1-1.7-2.4-1.7-4.3c0-2.8,0-5.8,0-9.1c0-3.3,0.1-7,0.3-11.1c0.2-4.1,0.4-8.6,0.7-13.6
		c0.3-5,0.8-10.5,1.4-16.5c-1.4,1.6-2.5,2.7-3.4,3.4s-1.7,1.1-2.3,1.1c-0.5,0-0.9-0.2-1.1-0.6c-0.2-0.4-0.4-1-0.4-1.8
		c0-1.3,0.3-2.9,1-4.9c0.7-2,1.6-4.1,2.9-6.4c1.2-2.3,2.8-4.5,4.6-6.7c1.8-2.2,4-4.2,6.4-6c0.5-0.3,1-0.5,1.6-0.5
		c0.7,0,1.4,0.3,2,0.8c0.6,0.5,1.2,1.2,1.7,2c0.5,0.8,0.9,1.7,1.2,2.7c0.3,1,0.4,2,0.4,3c0,0.9-0.1,1.7-0.2,2.3
		c-0.2,0.9-0.4,1.6-0.6,2.3c-0.2,0.7-0.4,1.5-0.6,2.4c-0.2,0.9-0.4,2.2-0.6,3.6c-0.2,1.5-0.5,3.5-0.8,6c-0.4,3.2-0.7,6.4-0.9,9.6
		c-0.2,3.2-0.4,6.5-0.6,9.8c-0.2,3.3-0.3,6.6-0.4,10c-0.1,3.3-0.3,6.7-0.4,10.2c0.9-1.1,1.8-2.4,3-4.1c1.1-1.7,2.3-3.4,3.5-5.3
		c1.2-1.8,2.4-3.7,3.6-5.6s2.2-3.6,3.2-5.1c1-1.5,1.7-2.7,2.3-3.6l0.8-1.5c1.4-3.7,2.9-7.3,4.4-10.8c1.5-3.5,2.9-7.1,4.4-10.6
		c1.4-3.4,2.9-6.1,4.4-7.9c1.6-1.9,3.2-2.8,5.1-2.8c1.5,0,2.7,0.3,3.6,0.8c0.9,0.5,1.3,1.2,1.3,2c0,1.4-0.3,3-1,4.8
		c-0.7,1.8-1.5,3.8-2.4,5.9c-0.9,2.1-1.8,4.3-2.7,6.5c-0.9,2.2-1.5,4.3-2,6.4c-0.2,3.4-0.4,6.3-0.5,8.6s-0.2,4.6-0.2,6.5
		c0,2.5,0,5,0.1,7.7c0,2.7,0.2,5.3,0.5,7.7c1.6-2.3,3.2-4.7,4.9-7.3s3.4-5.3,5-8.1c1.7-2.8,3.3-5.7,4.8-8.6c1.6-2.9,3-5.9,4.3-8.8
		c1.3-2.9,2.5-5.8,3.4-8.6c1-2.8,1.7-5.5,2.2-8.1l0.8-4.4c0-0.2,0-0.3,0.1-0.5c0-0.2,0.1-0.3,0.1-0.5c0.2-1.2,0.5-2.2,0.8-3.2
		c0.3-0.9,0.6-1.7,1.1-2.4c0.4-0.6,1-1.1,1.7-1.5c0.7-0.4,1.5-0.5,2.5-0.5c1.7,0,2.9,0.2,3.6,0.5c0.8,0.4,1.1,1.1,1.1,2.3
		c0,0.4,0,0.8-0.1,1.2C414,88.9,413.9,89.4,413.8,89.9z"/>
	<path class="st1" d="M425,117c1.5,0,3.1,0.2,4.8,0.6c1.7,0.4,3.3,1.1,4.7,2c1.4,0.9,2.6,2.2,3.6,3.7c1,1.5,1.4,3.4,1.4,5.7
		c0,1.2-0.2,2.5-0.5,4c-0.3,1.5-0.8,3.1-1.4,4.7c0.4,0.5,0.8,0.8,1.3,1c0.5,0.2,1.1,0.3,1.6,0.3c0.8,0,1.7-0.2,2.7-0.7
		c1-0.5,2-1.1,3.1-1.8c1.1-0.7,2.1-1.6,3.2-2.5s2-1.9,3-2.8c0.9-0.9,1.8-1.8,2.5-2.7c0.8-0.8,1.4-1.5,1.9-2.1c0.3-0.3,0.6-0.4,1-0.4
		c0.5,0,1,0.3,1.5,0.8c0.4,0.6,0.6,1.4,0.6,2.4c0,1-0.3,2.2-0.9,3.5c-0.6,1.3-1.7,2.7-3.4,4.1c-0.9,1-2,2.2-3.2,3.5
		c-1.2,1.3-2.5,2.6-3.9,3.7c-1.4,1.2-2.8,2.2-4.3,3c-1.5,0.8-3,1.2-4.4,1.2c-1,0-2-0.2-2.9-0.5c-1-0.3-1.9-0.8-2.9-1.5
		c-1.4,2.2-3,4.2-4.8,6c-1.8,1.8-3.8,3.3-6,4.6c-2.2,1.3-4.6,2.3-7.1,3c-2.5,0.7-5.3,1.1-8.1,1.1c-1.1,0-2.4-0.2-3.8-0.6
		c-1.4-0.4-2.8-1.1-4.1-2.1c-1.3-1-2.4-2.3-3.3-3.9c-0.9-1.6-1.3-3.5-1.3-5.8c0-1.6,0.3-3.4,0.8-5.6c0.5-2.2,1.3-4.4,2.3-6.7
		c1-2.3,2.3-4.6,3.9-6.9c1.6-2.3,3.5-4.3,5.6-6.1c2.2-1.8,4.7-3.3,7.5-4.4C418.5,117.6,421.6,117,425,117z M422,127.3
		c-1.8,0-3.6,0.5-5.3,1.4c-1.7,0.9-3.2,2.1-4.5,3.6c-1.3,1.5-2.3,3.2-3.1,5.1c-0.8,1.9-1.2,3.8-1.2,5.8c0,0.7,0.1,1.5,0.2,2.4
		c0.1,0.9,0.4,1.7,0.7,2.5c0.4,0.8,0.9,1.4,1.6,1.9c0.7,0.5,1.6,0.8,2.8,0.8c1.8,0,3.5-0.5,5.2-1.4c1.7-1,3.2-2.2,4.5-3.7
		c1.3-1.5,2.4-3.3,3.2-5.2c0.8-1.9,1.2-3.9,1.2-5.9c0-0.8,0-1.6-0.1-2.4c-0.1-0.8-0.3-1.6-0.7-2.3c-0.4-0.7-0.9-1.3-1.6-1.7
		C424.1,127.5,423.2,127.3,422,127.3z"/>
	<path class="st1" d="M468.7,142.6c-0.4,0.9-0.8,1.9-1.3,3.1c-0.4,1.2-0.6,2.2-0.6,3.2c0,0.6,0.1,1.1,0.4,1.4s0.7,0.5,1.3,0.5
		c0.8,0,1.8-0.2,3.1-0.7c1.2-0.5,2.5-1.1,4-1.9c1.4-0.8,2.9-1.7,4.4-2.7c1.5-1,3.1-2.1,4.6-3.2s3-2.2,4.3-3.3
		c1.4-1.1,2.6-2.1,3.7-3.1c0.3-0.3,0.7-0.5,1.1-0.6c0.4-0.1,0.8-0.2,1.1-0.2c0.8,0,1.4,0.3,1.9,0.8c0.5,0.5,0.8,1.3,0.8,2.2
		c0,0.8-0.3,1.7-0.8,2.7c-0.5,1-1.5,2-2.9,3c-2.5,2.3-5,4.5-7.5,6.5c-2.5,2.1-5,3.9-7.6,5.5c-2.5,1.6-5,2.8-7.5,3.8
		c-2.5,0.9-4.9,1.4-7.2,1.4c-1.6,0-2.9-0.2-4-0.6c-1.1-0.4-1.9-1-2.6-1.8c-0.6-0.7-1.1-1.6-1.4-2.6c-0.3-1-0.4-2.1-0.4-3.2
		c0-1.9,0.3-3.9,0.8-5.9c0.6-2,1.2-3.8,2-5.5c1.4-3,2.7-6.1,4.1-9s2.7-5.7,3.9-8.2l17.7-37.7c0.7-1.5,1.6-2.6,2.8-3.2
		c1.2-0.6,2.4-0.9,3.6-0.9c1.2,0,2.3,0.3,3.3,1c1,0.7,1.5,1.7,1.5,3.2c0,0.7-0.2,1.4-0.5,2.2c-0.3,0.8-0.8,1.6-1.3,2.5
		c-1,1.8-2.1,4.1-3.5,6.7c-1.3,2.6-2.8,5.5-4.3,8.6c-1.5,3.1-3.1,6.4-4.7,9.7c-1.6,3.4-3.2,6.6-4.7,9.8c-1.5,3.2-3,6.2-4.3,9.1
		C470.8,138,469.7,140.5,468.7,142.6z"/>
	<path class="st1" d="M539.8,126.3c-2,0.1-3.9,0.1-5.7,0.2c-1.8,0-3.6,0.1-5.3,0.1c-1.7,0-3.4,0-5.1,0c-1.7,0-3.4,0-5.1,0
		c-1,2-2.2,4.3-3.4,6.9c-1.3,2.6-2.6,5.4-4,8.3c-1.4,2.9-2.8,5.8-4.1,8.7c-1.4,2.9-2.7,5.7-3.9,8.3c-1.2,2.6-2.4,5-3.4,7.1
		c-1,2.1-1.8,3.8-2.5,5c-0.4,0.9-1,1.7-1.6,2.5c-0.6,0.8-1.3,1.4-2,2s-1.5,1-2.3,1.3c-0.8,0.3-1.5,0.4-2.2,0.4
		c-0.9,0-1.8-0.2-2.5-0.7c-0.7-0.5-1.1-1.2-1.1-2.2c0-0.5,0.1-1.1,0.4-1.8c0.2-0.7,0.6-1.5,1-2.4l20.6-43.7h-3.1
		c-2.1,0-3.6-0.3-4.4-1c-0.8-0.7-1.2-1.4-1.2-2.3c0-0.9,0.5-1.8,1.5-2.7c1-0.9,2.4-1.3,4.3-1.3h6.9c2.8-5.6,5.5-10.2,8.3-13.8
		c2.8-3.6,5.5-6.5,8.2-8.6c2.7-2.1,5.3-3.6,7.9-4.4c2.5-0.8,5-1.2,7.3-1.2c1.1,0,2.1,0.2,3.1,0.6c1,0.4,1.9,1.1,2.6,1.9
		c0.8,0.9,1.4,1.9,1.8,3.2c0.5,1.3,0.7,2.8,0.7,4.6c0,1.7-0.2,3.5-0.7,5.5c-0.1,0.5-0.4,1-0.7,1.4c-0.4,0.4-0.7,0.7-1.2,0.9
		c-0.4,0.2-0.9,0.4-1.3,0.5c-0.4,0.1-0.8,0.1-1.1,0.1c-0.8,0-1.5-0.2-2.2-0.6c-0.7-0.4-1-0.9-1-1.7c0-0.5,0-1,0.1-1.4
		c0.1-0.4,0.1-0.9,0.1-1.3c0-1.6-0.3-2.8-0.9-3.5c-0.6-0.7-1.4-1.1-2.4-1.1c-1.2,0-2.6,0.5-4.2,1.6c-1.6,1.1-3.2,2.5-4.9,4.2
		c-1.7,1.8-3.2,3.7-4.8,6c-1.5,2.2-2.8,4.5-3.7,6.9h13.6c1.2,0,2.3,0,3.4,0.1c1.1,0,2,0.2,2.8,0.4c0.8,0.2,1.4,0.5,1.9,1
		c0.4,0.4,0.7,1.1,0.7,2c0,0.4-0.1,0.9-0.2,1.3c-0.2,0.4-0.4,0.8-0.8,1.2c-0.4,0.4-0.9,0.7-1.5,0.9
		C541.7,126.1,540.9,126.2,539.8,126.3z"/>
	<path class="st1" d="M635.4,142.6c-0.7,0.7-1.6,1.6-2.8,2.7c-1.2,1.2-2.5,2.4-4,3.8c-1.5,1.4-3.1,2.7-4.8,4.1
		c-1.7,1.4-3.4,2.6-5.2,3.8c-1.8,1.1-3.5,2.1-5.2,2.8c-1.7,0.7-3.3,1.1-4.8,1.1c-1.4,0-2.5-0.3-3.5-0.9c-1-0.6-1.8-1.3-2.4-2.3
		c-0.6-0.9-1.1-2-1.4-3.2c-0.3-1.2-0.5-2.4-0.5-3.6c0-0.8,0.1-1.6,0.2-2.4c0.1-0.8,0.3-1.5,0.6-2.2c-1.2,1.6-2.6,3.3-4.1,5
		c-1.5,1.7-3.2,3.3-5,4.7c-1.8,1.4-3.6,2.6-5.5,3.5c-1.9,0.9-3.9,1.4-5.9,1.4c-1,0-2.2-0.2-3.5-0.6c-1.3-0.4-2.6-1.1-3.8-2
		c-1.2-0.9-2.2-2.1-3-3.6c-0.8-1.5-1.2-3.3-1.2-5.4c0-1.6,0.2-3.5,0.7-5.7c0.5-2.2,1.2-4.5,2.2-6.9c1-2.4,2.3-4.8,3.8-7.1
		c1.5-2.3,3.4-4.4,5.5-6.3c2.1-1.8,4.5-3.3,7.2-4.5s5.7-1.7,9-1.7c1.7,0,3.2,0.2,4.5,0.6c1.3,0.4,2.4,0.9,3.3,1.4
		c1,0.6,1.9,1.3,2.7,2c0.7-0.3,1.3-0.7,2-1c0.6-0.3,1.2-0.5,1.8-0.7c0.6-0.2,1.2-0.3,1.7-0.3c1.5,0,2.7,0.4,3.6,1.2
		c0.9,0.8,1.4,1.7,1.4,2.7c0,0.3,0,0.5-0.1,0.6c-0.2,0.7-0.5,1.7-0.9,2.8c-0.4,1.1-0.9,2.4-1.4,3.8c-0.5,1.4-1,2.8-1.5,4.3
		s-1,3-1.4,4.4c-0.4,1.4-0.8,2.8-1.1,4.1c-0.3,1.3-0.4,2.3-0.4,3.2c0,1.2,0.2,2.1,0.6,2.9c0.4,0.8,1.1,1.1,2,1.1
		c0.6,0,1.3-0.2,2.1-0.6c0.8-0.4,1.7-0.9,2.6-1.5c0.9-0.6,1.9-1.3,2.9-2.1c1-0.8,2-1.6,2.9-2.4c2.2-1.9,4.5-4.2,6.9-6.7
		c0.6-0.5,1.2-0.8,1.8-0.8c0.8,0,1.4,0.4,2,1.1s0.8,1.6,0.8,2.5C636.5,141,636.2,141.9,635.4,142.6z M595,127.6
		c-1.8,0-3.6,0.5-5.3,1.4c-1.7,0.9-3.2,2.2-4.6,3.7c-1.3,1.5-2.4,3.2-3.2,5.1c-0.8,1.9-1.2,3.8-1.2,5.7c0,0.8,0,1.6,0.1,2.4
		c0.1,0.8,0.3,1.6,0.7,2.3s0.8,1.3,1.5,1.8c0.6,0.5,1.5,0.7,2.6,0.7c0.9,0,1.9-0.4,3-1.1c1.1-0.8,2.3-1.7,3.6-2.9
		c1.2-1.2,2.4-2.5,3.6-3.9c1.2-1.4,2.2-2.8,3.2-4.2c0.9-1.4,1.7-2.6,2.3-3.7c0.6-1.1,0.9-1.9,0.9-2.4c0-0.7-0.3-1.4-0.8-2
		c-0.5-0.6-1.1-1.1-1.9-1.5c-0.7-0.4-1.5-0.7-2.4-1C596.3,127.7,595.6,127.6,595,127.6z"/>
	<path class="st1" d="M646.1,124c0.8-1.7,1.8-2.9,2.9-3.7c1.2-0.8,2.3-1.2,3.4-1.2c0.9,0,1.8,0.3,2.5,1c0.7,0.7,1.1,1.7,1.1,3
		c0,0.5-0.1,1.1-0.2,1.6c-0.1,0.6-0.3,1.2-0.6,1.9c0.9-1.1,2.1-2.2,3.7-3.4c1.6-1.1,3.4-2.2,5.3-3.1c1.9-0.9,3.9-1.7,6-2.2
		s4-0.9,5.8-0.9c2.1,0,3.8,0.5,5.2,1.5c1.4,1,2.1,2.7,2.1,5c0,1.4-0.2,2.9-0.6,4.4c-0.4,1.5-1,3-1.7,4.6c-0.7,1.5-1.4,3-2.3,4.5
		c-0.8,1.5-1.7,2.8-2.5,4.1c-0.8,1.3-1.6,2.5-2.2,3.5s-1.2,2-1.6,2.7c-0.5,0.6-0.8,1.3-0.8,2.2c0,0.3,0.1,0.6,0.3,0.8
		c0.2,0.2,0.5,0.4,0.9,0.4c0.3,0,0.6,0,0.9-0.1s0.8-0.3,1.3-0.6c2.1-0.8,4.3-1.8,6.5-2.9c2.2-1.2,4.3-2.4,6.3-3.7
		c2-1.3,3.9-2.6,5.6-3.9c1.7-1.3,3.1-2.5,4.2-3.5c0.3-0.3,0.6-0.5,0.9-0.6c0.3-0.1,0.6-0.2,0.9-0.2c0.7,0,1.2,0.3,1.5,0.8
		c0.4,0.5,0.6,1.1,0.6,1.9c0,1.2-0.4,2.5-1.1,4c-0.8,1.5-2,2.9-3.6,4.1c-2.2,1.6-4.3,3.1-6.1,4.4c-1.8,1.3-3.7,2.6-5.7,3.7
		c-1.9,1.1-4,2.2-6.2,3.2c-2.2,1-4.8,1.9-7.7,2.8c-1,0.3-1.9,0.5-2.8,0.7c-0.8,0.2-1.6,0.2-2.3,0.2c-2.1,0-3.6-0.6-4.5-1.7
		c-1-1.1-1.4-2.8-1.4-4.8c0-0.3,0-0.5,0-0.8c0-0.3,0-0.5,0.1-0.8c0.1-1.2,0.4-2.5,1-4c0.6-1.4,1.2-2.9,2-4.4c0.8-1.5,1.6-3,2.5-4.5
		c0.9-1.5,1.7-2.9,2.5-4.3s1.4-2.5,1.9-3.6c0.5-1.1,0.8-1.9,0.8-2.6c0-0.6-0.2-1.1-0.5-1.5c-0.3-0.4-0.8-0.6-1.5-0.6
		c-2.5,0-4.9,0.7-7.1,2.2c-2.2,1.5-4.3,3.3-6.3,5.5c-1.9,2.2-3.7,4.4-5.4,6.9s-3.1,4.6-4.3,6.5c-0.8,1.3-1.5,2.7-2.1,4.1
		c-0.6,1.5-1.3,2.8-2,4.1c-0.7,1.3-1.5,2.3-2.4,3.2c-0.9,0.8-2,1.3-3.3,1.3c-1.4,0-2.4-0.4-3.2-1.3c-0.8-0.9-1.2-1.9-1.2-3.2
		c0-0.7,0.3-1.7,0.8-3.2c0.5-1.5,1.2-3.2,2.1-5.1c0.9-1.9,1.8-4,2.9-6.3c1.1-2.2,2.1-4.5,3.2-6.7c1.1-2.2,2.1-4.3,3.1-6.2
		C644.7,127,645.5,125.4,646.1,124z"/>
	<path class="st1" d="M737.6,147.6c0,0.1-0.1,0.2-0.1,0.3c0,0.1,0,0.2-0.1,0.3c0,0.7,0.2,1.4,0.5,2.2s0.9,1.1,1.7,1.1
		c0.3,0,0.5,0,0.7-0.1c2.2-0.7,4.5-1.7,6.7-3.2c2.3-1.4,4.5-3,6.6-4.7c2.1-1.7,4-3.5,5.8-5.3c1.8-1.8,3.2-3.4,4.4-4.8
		c0.5-0.7,1.1-1,1.8-1c0.6,0,1.1,0.3,1.5,0.8c0.4,0.5,0.7,1.3,0.7,2.2c0,0.7-0.2,1.6-0.6,2.6c-0.4,1-1.1,2.1-2,3.3
		c-2.3,2.5-4.7,5-7.1,7.3c-2.4,2.3-4.8,4.4-7.3,6.2s-4.9,3.3-7.3,4.3c-2.4,1.1-4.8,1.6-7.2,1.6c-2.8,0-5.1-0.8-6.7-2.4
		c-1.6-1.6-2.5-4-2.5-7.3c0-0.2,0-0.4,0-0.6s0-0.4,0.1-0.6c-0.9,1.6-2,3.1-3.4,4.5s-2.9,2.5-4.6,3.4c-1.7,1-3.4,1.7-5.2,2.2
		c-1.8,0.5-3.5,0.8-5.2,0.8c-1.4,0-2.8-0.2-4-0.6c-1.2-0.4-2.2-1-3.1-1.9c-0.9-0.9-1.6-1.9-2-3.3c-0.5-1.3-0.7-2.9-0.7-4.8
		c0-3.3,0.5-6.4,1.5-9.3c1-2.9,2.4-5.6,4-8.1c1.7-2.5,3.6-4.7,5.8-6.7c2.2-2,4.4-3.6,6.7-5c2.3-1.4,4.6-2.4,6.9-3.2
		c2.3-0.7,4.4-1.1,6.3-1.1c2.2,0,4.1,0.4,5.7,1.1c0.8,0.4,1.5,0.9,2.2,1.6c0.2-0.4,0.3-0.7,0.5-1c0.4-0.9,0.7-1.7,1.1-2.4
		c0.3-0.7,0.5-1.2,0.6-1.5c0.1-0.4,0.4-1.2,1-2.5s1.2-2.8,1.9-4.5c0.7-1.7,1.5-3.6,2.3-5.6c0.8-2,1.6-3.9,2.3-5.6
		c0.7-1.8,1.3-3.3,1.8-4.5c0.5-1.3,0.8-2.1,0.9-2.4c0.3-1,0.6-1.9,1.1-2.8c0.5-0.9,1-1.7,1.7-2.4c0.6-0.7,1.4-1.2,2.2-1.6
		c0.9-0.4,1.8-0.6,2.9-0.6c1.5,0,2.7,0.3,3.7,1c1,0.6,1.5,1.9,1.5,3.7c0,0.7-0.1,1.5-0.3,2.3c-0.2,0.8-0.4,1.5-0.7,2.3
		c-0.3,0.7-0.5,1.5-0.8,2.2c-0.3,0.7-0.6,1.4-0.8,2c-1.9,3.9-4,8.1-6.1,12.7c-2.1,4.6-4.3,9.2-6.4,13.8c-2.1,4.6-4.1,9.1-6,13.5
		C740.7,140.1,739.1,144.1,737.6,147.6z M735.9,124.8c-2.3,0.1-4.8,0.6-7.4,1.5c-3,1-5.7,2.5-8.1,4.5c-2.5,2-4.5,4.5-6.2,7.4
		c-1.7,2.9-2.7,6.3-2.9,10c0,1.6,0.7,2.3,2,2.3c1.6,0,3.2-0.3,4.7-1c1.5-0.7,2.9-1.6,4.2-2.7c1.3-1.1,2.6-2.5,3.8-3.9
		c1.2-1.5,2.2-3,3.2-4.6c1-1.6,1.9-3.2,2.7-4.8c0.8-1.6,1.5-3,2.1-4.4c0.2-0.4,0.5-1,0.8-1.8C735.1,126.6,735.5,125.7,735.9,124.8z"
		/>
	<path class="st1" d="M818.8,127c-1.4,2.8-2.8,5.5-4.1,8.2c-1.3,2.7-2.5,5.1-3.6,7.4c-0.5,0.9-0.9,2-1.4,3.2
		c-0.4,1.2-0.7,2.3-0.7,3.2c0,0.5,0.1,1,0.4,1.3s0.7,0.5,1.3,0.5c0.8,0,1.8-0.2,3.1-0.7c1.2-0.5,2.6-1.1,4-1.9
		c1.4-0.8,3-1.7,4.6-2.7c1.6-1,3.2-2.1,4.7-3.2c1.5-1.1,3-2.2,4.4-3.3c1.4-1.1,2.6-2.1,3.7-3.1c0.6-0.4,1.2-0.6,1.8-0.6
		c0.7,0,1.2,0.3,1.6,0.9c0.4,0.6,0.6,1.3,0.6,2.2c0,0.9-0.2,1.8-0.6,2.7c-0.4,0.9-1.2,1.8-2.3,2.7c-2.5,2.3-5.1,4.5-7.7,6.5
		c-2.6,2.1-5.2,3.9-7.7,5.5s-5.1,2.8-7.6,3.8c-2.5,0.9-4.9,1.4-7.2,1.4c-1.6,0-2.9-0.2-3.9-0.6c-1-0.4-1.9-1-2.5-1.7
		c-0.6-0.7-1.1-1.6-1.4-2.5c-0.3-1-0.4-2-0.4-3.1c0-1.9,0.3-4,1-6.1c0.7-2.1,1.4-4,2.2-5.7c1.2-2.4,2.3-4.8,3.5-7.2
		c1.1-2.4,2.3-4.6,3.4-6.8h-2.5c-2.2,0-3.7-0.4-4.5-1.1c-0.8-0.7-1.2-1.5-1.2-2.4c0-0.4,0.1-0.9,0.4-1.4c0.3-0.6,0.6-1.1,1.1-1.6
		c0.5-0.5,1.1-0.9,1.8-1.3c0.7-0.3,1.5-0.5,2.4-0.5h6.3l12.3-24.5c0.8-1.5,1.7-2.5,2.9-3.2s2.3-1,3.6-1c1.2,0,2.2,0.3,3.2,0.9
		c1,0.6,1.5,1.7,1.5,3.1c0,0.7-0.2,1.5-0.5,2.2c-0.3,0.8-0.8,1.6-1.3,2.7c-0.4,0.7-0.8,1.5-1.3,2.4c-0.5,0.9-1,1.9-1.6,2.9
		c-0.6,1-1.1,2.1-1.8,3.2c-0.6,1.1-1.2,2.2-1.8,3.3c-1.3,2.5-2.7,5.1-4.2,7.9h19c0.9,0,1.8,0,2.6,0.1c0.8,0.1,1.4,0.3,2,0.6
		c0.6,0.3,1,0.7,1.3,1.2c0.3,0.5,0.5,1.2,0.5,2c0,0.4-0.1,0.9-0.2,1.3c-0.1,0.4-0.4,0.8-0.8,1.2c-0.4,0.3-0.9,0.6-1.5,0.9
		c-0.6,0.2-1.5,0.4-2.5,0.5L818.8,127z"/>
	<path class="st1" d="M836.4,150.2c0.9-2,2-4.2,3.2-6.6c1.2-2.4,2.4-4.8,3.6-7.2c1.2-2.4,2.4-4.7,3.5-6.8c1.1-2.2,2-4,2.7-5.5
		l19.3-37.9c0.2-0.5,0.6-1,1.1-1.5s1-0.9,1.7-1.3c0.6-0.4,1.3-0.7,2-0.9c0.7-0.2,1.4-0.3,2.1-0.3c1.7,0,2.9,0.3,3.6,1
		c0.7,0.6,1,1.4,1,2.4c0,0.9-0.2,1.8-0.6,2.7c-0.4,1-0.9,1.8-1.5,2.7c-1.7,2.9-3.4,5.9-4.9,8.8s-3.2,6-4.7,9c-1.6,3-3.2,6-4.8,9
		c-1.6,3-3.3,5.9-5,8.8c1.1-1.1,2.2-2.1,3.5-3.3c1.2-1.1,2.6-2.2,4-3.1c1.4-0.9,3-1.7,4.7-2.3c1.7-0.6,3.6-0.9,5.7-0.9
		c1.2,0,2.4,0.1,3.6,0.4c1.1,0.2,2.1,0.6,3,1.1c0.9,0.5,1.5,1.2,2,2.2c0.5,0.9,0.8,2,0.8,3.4c0,1.8-0.3,3.4-0.8,4.8
		c-0.5,1.5-1.2,2.8-2,4.1s-1.7,2.5-2.7,3.7c-1,1.2-1.9,2.4-2.8,3.6c-0.9,1.2-1.6,2.5-2.3,3.8c-0.6,1.3-1,2.8-1.2,4.3
		c0,0.1,0,0.2,0,0.2c0,0.1,0,0.2,0,0.2c0,0.8,0.3,1.3,0.8,1.5s1.2,0.3,2,0.3c1.1,0,2.2-0.2,3.4-0.6c1.2-0.4,2.4-1,3.6-1.6
		c1.2-0.7,2.5-1.4,3.7-2.3c1.2-0.9,2.4-1.7,3.5-2.6c1.1-0.9,2.1-1.8,3.1-2.6c0.9-0.8,1.7-1.6,2.4-2.2c0.4-0.3,0.7-0.5,1.1-0.7
		c0.4-0.2,0.8-0.2,1.1-0.2c0.7,0,1.3,0.3,1.8,0.8c0.5,0.5,0.7,1.2,0.7,2.1c0,0.8-0.3,1.8-0.8,2.8s-1.5,2.1-2.9,3.2
		c-2.1,1.9-4.3,3.7-6.5,5.4c-2.2,1.7-4.5,3.2-6.7,4.6c-2.3,1.3-4.5,2.4-6.7,3.2c-2.2,0.8-4.4,1.2-6.6,1.2c-2.8,0-5-0.6-6.7-1.9
		c-1.7-1.3-2.5-3.3-2.5-6c0-2,0.3-3.9,1-5.6c0.7-1.8,1.5-3.5,2.5-5.1c1-1.7,2.1-3.2,3.2-4.8c1.1-1.5,2.1-3,3-4.5
		c0.5-0.7,0.8-1.3,1.1-1.8c0.3-0.6,0.4-1.2,0.4-1.8c0-0.6-0.2-1.1-0.5-1.4s-0.8-0.6-1.5-0.6c-2.3,0-4.4,0.6-6.4,1.7
		c-1.9,1.1-3.7,2.6-5.4,4.3c-1.6,1.8-3.2,3.7-4.6,5.8c-1.4,2.1-2.7,4.1-3.9,6c-0.5,0.9-1.1,1.8-1.7,2.9c-0.6,1.1-1.1,2.2-1.8,3.4
		c-0.6,1.2-1.2,2.3-1.9,3.5c-0.7,1.1-1.4,2.2-2.1,3.1c-0.7,0.9-1.5,1.6-2.3,2.2c-0.8,0.5-1.6,0.8-2.5,0.8c-1.4,0-2.4-0.4-3.2-1.2
		c-0.7-0.8-1.1-1.8-1.1-3c0-0.9,0.2-1.8,0.5-2.8S835.7,151.7,836.4,150.2z"/>
	<path class="st1" d="M932.8,117c3.2,0,5.6,0.8,7.2,2.3c1.6,1.6,2.4,3.7,2.4,6.5c0,1.6-0.4,3.3-1.3,5.1c-0.9,1.8-2.3,3.6-4.4,5.5
		s-4.9,3.7-8.4,5.7c-3.5,1.9-7.9,3.9-13.2,5.8c0.2,1.1,0.8,2,1.8,2.7c1,0.6,2.4,1,4,1c1.8,0,3.7-0.3,5.8-0.8s4.1-1.2,6.1-2
		c2-0.8,4-1.7,5.9-2.7c1.9-1,3.6-1.9,5.2-2.7c1.5-0.9,2.8-1.6,3.9-2.2s1.7-1,2.1-1.2c0.4-0.2,0.7-0.4,1-0.4s0.6-0.1,0.8-0.1
		c0.5,0,0.9,0.1,1.2,0.3s0.6,0.5,0.8,0.8s0.4,0.6,0.4,0.9c0.1,0.3,0.1,0.6,0.1,0.8c0,0.4,0,0.8-0.1,1.3c-0.1,0.5-0.4,1-0.9,1.7
		c-0.2,0.2-0.8,0.7-2,1.6c-1.1,0.9-2.5,1.9-4.3,3c-1.8,1.2-3.8,2.4-6.1,3.7s-4.8,2.5-7.4,3.6c-2.6,1.1-5.3,2-8.1,2.7
		s-5.6,1.1-8.3,1.1c-2.3,0-4.4-0.4-6.2-1.3c-1.8-0.9-3.3-2.1-4.6-3.6c-1.3-1.5-2.2-3.3-2.9-5.3c-0.7-2-1-4.1-1-6.2
		c0-1.7,0.3-3.5,1-5.5c0.7-2,1.6-4,2.9-6c1.2-2,2.8-4,4.6-5.9c1.8-1.9,3.8-3.6,6.1-5.1s4.7-2.7,7.4-3.6
		C926.9,117.4,929.7,117,932.8,117z M930.7,125c-0.2,0-0.4-0.1-0.5-0.1c-0.2,0-0.3,0-0.5,0c-1.5,0-2.9,0.3-4.1,0.9
		c-1.3,0.6-2.5,1.4-3.5,2.3c-1.1,1-2,2-2.9,3.2c-0.8,1.2-1.6,2.4-2.2,3.6c-0.7,1.2-1.2,2.3-1.7,3.4c-0.4,1.1-0.8,2-1,2.7
		c1.4-0.7,2.8-1.5,4.2-2.4c1.5-0.9,2.8-1.8,4.1-2.6c1.3-0.8,2.4-1.6,3.4-2.2c1-0.7,1.6-1.1,2-1.3c1.8-1.1,3-2.1,3.6-3.1
		c0.7-1,1-1.8,1-2.5c0-0.6-0.2-1.1-0.6-1.4C931.6,125.3,931.2,125.1,930.7,125z"/>
	<path class="st1" d="M1053.4,111.2c-0.5,1.1-0.9,2-1.3,2.7c-0.4,0.7-0.9,1.2-1.4,1.5c-0.5,0.4-1.1,0.6-1.7,0.7
		c-0.6,0.1-1.4,0.2-2.2,0.2c-3.7-0.3-6.8-0.5-9.4-0.7c-2.6-0.2-5-0.2-7-0.2c-2,0-3.7,0.1-5.2,0.2c-1.5,0.2-3,0.4-4.4,0.8
		c-0.6,0.9-1.5,2.4-2.6,4.4c-1.2,2-2.5,4.3-3.9,6.9s-2.9,5.3-4.3,8.3c-1.5,2.9-2.8,5.7-4.1,8.4c-2.7,5.8-5.1,10.2-7.2,13.1
		c-2.1,2.9-3.9,4.3-5.4,4.3c-1.8,0-3.1-0.3-3.9-1s-1.2-1.6-1.2-2.8c0-1.5,0.5-3.6,1.6-6.2c1.1-2.7,2.6-5.9,4.5-9.7
		c0.7-1.4,1.5-2.9,2.3-4.5c0.8-1.6,1.7-3.2,2.5-4.8c0.9-1.6,1.7-3.2,2.5-4.7s1.6-2.9,2.2-4.1c0.7-1.2,1.2-2.3,1.7-3.1
		c0.4-0.9,0.7-1.4,0.8-1.7c0.1-0.3,0.2-0.5,0.3-0.6c0.1-0.1,0.1-0.2,0.1-0.3c0-0.1,0-0.1,0-0.1c0,0,0-0.1,0.1-0.3h-1.1
		c-1.5,0-2.7-0.1-3.6-0.3c-0.9-0.2-1.3-0.7-1.3-1.5c0-0.4,0.2-1,0.5-1.6c0.8-1.5,1.7-2.7,2.7-3.5c1-0.8,2-1.4,2.9-1.7
		c1-0.4,1.8-0.5,2.6-0.6c0.8,0,1.4,0,1.8,0c1.1-2.1,2.1-4.3,3.2-6.4c1.1-2.1,2.1-4.3,3.2-6.4c2-3.9,4-7.2,6-9.9
		c2-2.6,4.3-4.8,6.7-6.4c2.4-1.6,5.1-2.7,8-3.4c2.9-0.7,6.2-1,10-1c3.4,0,6.2,0.1,8.2,0.3c2,0.2,3.5,0.4,4.3,0.6
		c1.6,0.4,2.7,1.2,3.3,2.2c0.6,1,1,2.2,1,3.4c0,1-0.2,1.9-0.5,2.9c-0.3,1-0.8,1.9-1.3,2.7c-0.6,0.8-1.2,1.5-1.9,2
		c-0.7,0.5-1.5,0.8-2.2,0.8c-0.4,0-0.8-0.1-1.1-0.2c-0.9-0.4-1.6-0.7-2.3-1c-0.7-0.3-1.4-0.5-2.1-0.7c-0.7-0.2-1.5-0.3-2.4-0.4
		c-0.9-0.1-2-0.1-3.2-0.1c-1.3,0-2.9,0-4.7,0.1c-1.8,0.1-4,0.1-6.6,0.3c-1.1,1.8-2,3.5-2.9,5.1c-0.9,1.6-1.8,3.1-2.7,4.7
		c-0.9,1.5-1.8,3.1-2.7,4.7c-0.9,1.6-1.9,3.3-3,5.2c1.4-0.5,3-1,4.7-1.4c1.7-0.4,3.4-0.7,5.2-1c1.8-0.3,3.6-0.5,5.3-0.6
		s3.5-0.2,5.1-0.2c3,0,5.1,0.2,6.4,0.7c1.3,0.5,2,1.4,2,2.9c0,0.3,0,0.8-0.1,1.4C1054.1,109.8,1053.8,110.5,1053.4,111.2z"/>
	<path class="st1" d="M1063.7,117c1.5,0,3.1,0.2,4.8,0.6c1.7,0.4,3.3,1.1,4.7,2c1.4,0.9,2.6,2.2,3.6,3.7c1,1.5,1.4,3.4,1.4,5.7
		c0,1.2-0.2,2.5-0.5,4c-0.3,1.5-0.8,3.1-1.4,4.7c0.4,0.5,0.8,0.8,1.3,1c0.5,0.2,1.1,0.3,1.6,0.3c0.8,0,1.7-0.2,2.7-0.7
		c1-0.5,2-1.1,3.1-1.8c1.1-0.7,2.1-1.6,3.2-2.5s2-1.9,3-2.8c0.9-0.9,1.8-1.8,2.5-2.7c0.8-0.8,1.4-1.5,1.9-2.1c0.3-0.3,0.6-0.4,1-0.4
		c0.5,0,1,0.3,1.5,0.8c0.4,0.6,0.6,1.4,0.6,2.4c0,1-0.3,2.2-0.9,3.5c-0.6,1.3-1.7,2.7-3.4,4.1c-0.9,1-2,2.2-3.2,3.5
		s-2.5,2.6-3.9,3.7c-1.4,1.2-2.8,2.2-4.3,3c-1.5,0.8-3,1.2-4.4,1.2c-1,0-2-0.2-2.9-0.5c-1-0.3-1.9-0.8-2.9-1.5c-1.4,2.2-3,4.2-4.8,6
		c-1.8,1.8-3.8,3.3-6,4.6c-2.2,1.3-4.6,2.3-7.1,3s-5.3,1.1-8.1,1.1c-1.1,0-2.4-0.2-3.8-0.6c-1.4-0.4-2.8-1.1-4.1-2.1
		c-1.3-1-2.4-2.3-3.3-3.9c-0.9-1.6-1.3-3.5-1.3-5.8c0-1.6,0.3-3.4,0.8-5.6c0.5-2.2,1.3-4.4,2.3-6.7s2.3-4.6,3.9-6.9
		c1.6-2.3,3.5-4.3,5.6-6.1s4.7-3.3,7.5-4.4C1057.2,117.6,1060.3,117,1063.7,117z M1060.7,127.3c-1.8,0-3.6,0.5-5.3,1.4
		c-1.7,0.9-3.2,2.1-4.5,3.6c-1.3,1.5-2.3,3.2-3.1,5.1c-0.8,1.9-1.2,3.8-1.2,5.8c0,0.7,0.1,1.5,0.2,2.4c0.1,0.9,0.4,1.7,0.7,2.5
		c0.4,0.8,0.9,1.4,1.6,1.9c0.7,0.5,1.6,0.8,2.8,0.8c1.8,0,3.5-0.5,5.2-1.4c1.7-1,3.2-2.2,4.5-3.7c1.3-1.5,2.4-3.3,3.2-5.2
		s1.2-3.9,1.2-5.9c0-0.8,0-1.6-0.1-2.4c-0.1-0.8-0.3-1.6-0.7-2.3c-0.4-0.7-0.9-1.3-1.6-1.7C1062.8,127.5,1061.9,127.3,1060.7,127.3z
		"/>
	<path class="st1" d="M1108.1,117.7c1,0,1.8,0.1,2.5,0.2c0.7,0.2,1.3,0.5,1.8,1c0.5,0.5,0.8,1.2,1,2.1c0.2,0.9,0.4,2,0.4,3.4v6.7
		l13-10.9c2-1.6,4-2.5,6-2.5c1.2,0,2.1,0.3,2.9,0.8c0.8,0.5,1.2,1.3,1.2,2.2c0,0.5-0.2,1.1-0.6,1.8c-0.4,0.6-0.9,1.2-1.7,1.9
		l-19.4,16.3l0.7,7.9c0,1.9,0.7,2.9,2,2.9c1.5,0,3.3-0.6,5.5-1.7c2.2-1.1,4.8-2.7,7.7-4.8l6.7-4.9c0.7-0.4,1.4-0.6,2.2-0.6
		c0.8,0,1.5,0.3,2,0.8c0.5,0.6,0.8,1.3,0.8,2.2c0,1-0.4,2.1-1.1,3.4c-0.7,1.3-2,2.6-3.9,3.9c-2.9,2.1-5.5,3.8-7.7,5.2
		c-2.2,1.4-4.2,2.5-6,3.4c-1.8,0.9-3.5,1.5-5,1.9s-3.1,0.6-4.6,0.6c-3.5,0-6.1-1-7.9-3c-1.7-2-2.6-5.2-2.6-9.6l-12.7,11
		c-0.7,0.6-1.5,1-2.2,1.3c-0.8,0.3-1.5,0.4-2.1,0.4c-1.2,0-2.3-0.3-3.2-1c-0.9-0.7-1.3-1.5-1.3-2.5c0-1.1,0.7-2.2,2.1-3.2l18-15.6
		v-14.2c0-1.8,0.3-3.1,0.8-4c0.5-0.9,1.1-1.6,1.8-2c0.7-0.4,1.3-0.6,1.9-0.7C1107.7,117.7,1108,117.7,1108.1,117.7z"/>
</g>
</svg>
