<?xml version="1.0" encoding="utf-8"?>
<!-- Generator: Adobe Illustrator 19.1.0, SVG Export Plug-In . SVG Version: 6.00 Build 0)  -->
<svg version="1.1" id="Layer_1" xmlns="http://www.w3.org/2000/svg" xmlns:xlink="http://www.w3.org/1999/xlink" x="0px" y="0px"
	 viewBox="0 0 600 800" style="enable-background:new 0 0 600 800;" xml:space="preserve">
<style type="text/css">
	.st0{fill:none;}
	.st1{stroke:#000000;stroke-miterlimit:10;}
	.st2{fill:none;stroke:#000000;}
	.st3{fill:none;stroke:#000000;stroke-miterlimit:10;}
</style>
<rect x="437.2" y="206.9" class="st0" width="6.1" height="0"/>
<g>
	<path d="M29.4,230.8l-6-9.3l1.2-0.1l5.3,8.3l4.4-8.8l1.1-0.1l-5,9.9l0.3,6.3l-1,0L29.4,230.8z"/>
	<path d="M38.7,231.6L38.7,231.6c-0.2-3.3,1.7-6.2,4.5-6.4c2.8-0.1,4.9,2.5,5.1,5.8l0,0c0.2,3.3-1.7,6.2-4.5,6.3
		C41,237.5,38.8,234.8,38.7,231.6z M47.3,231.1L47.3,231.1c-0.1-2.8-2-5-4.1-4.9c-2.2,0.1-3.7,2.5-3.6,5.2l0,0
		c0.1,2.8,2,4.9,4.1,4.8C46,236.2,47.4,233.9,47.3,231.1z"/>
	<path d="M52,232.8l-0.4-7.1l0.9,0l0.4,6.9c0.1,2.4,1.3,3.9,3.2,3.8c1.8-0.1,3.2-1.9,3-4.3l-0.4-6.7l0.9,0l0.6,11.6l-0.9,0l-0.1-2.2
		c-0.6,1.4-1.5,2.5-3.2,2.6C53.7,237.5,52.2,235.6,52,232.8z"/>
	<path d="M63.6,225c0.8-0.5,1-1.1,0.9-1.9l-0.5,0l-0.1-1.9l1.2-0.1l0.1,1.7c0.1,1.4-0.3,2.2-1.4,2.8L63.6,225z"/>
	<path d="M69.6,225.6l0.9,0l0.2,3.3c0.6-2.1,2.1-3.7,4-3.7l0.1,1.2l-0.1,0c-2.2,0.1-4,2.2-3.8,6l0.2,4.8l-0.9,0L69.6,225.6z"/>
	<path d="M77.7,231.5L77.7,231.5c-0.2-3.4,1.6-6.2,4.1-6.3c2.6-0.1,4.4,2.4,4.6,5.9c0,0.2,0,0.3,0,0.5l-7.8,0.4
		c0.3,2.9,2.1,4.5,3.9,4.4c1.5-0.1,2.4-0.9,3.1-2l0.7,0.7c-0.9,1.3-2,2.3-3.8,2.4C80.1,237.5,77.9,235.2,77.7,231.5z M85.4,230.6
		c-0.3-2.3-1.4-4.4-3.6-4.3c-1.9,0.1-3.2,2.1-3.2,4.7L85.4,230.6z"/>
	<path d="M96.2,231.6L96.2,231.6c-0.2-3.3,1.7-6.2,4.5-6.4c2.8-0.1,4.9,2.5,5.1,5.8l0,0c0.2,3.3-1.7,6.2-4.5,6.3
		C98.5,237.5,96.3,234.8,96.2,231.6z M104.8,231.1L104.8,231.1c-0.1-2.8-2-5-4.1-4.9c-2.2,0.1-3.7,2.5-3.6,5.2l0,0
		c0.1,2.8,2,4.9,4.1,4.8C103.5,236.2,105,233.9,104.8,231.1z"/>
	<path d="M108.4,225.7l1-0.1l4.1,10.2l3-10.5l1-0.1l-3.6,11.9l-0.8,0L108.4,225.7z"/>
	<path d="M120.8,231.5L120.8,231.5c-0.2-3.4,1.6-6.2,4.1-6.3c2.6-0.1,4.4,2.4,4.6,5.9c0,0.2,0,0.3,0,0.5l-7.8,0.4
		c0.3,2.9,2.1,4.5,3.9,4.4c1.5-0.1,2.4-0.9,3.1-2l0.7,0.7c-0.9,1.3-2,2.3-3.8,2.4C123.3,237.5,121,235.2,120.8,231.5z M128.6,230.6
		c-0.3-2.3-1.4-4.4-3.6-4.3c-1.9,0.1-3.2,2.1-3.2,4.7L128.6,230.6z"/>
	<path d="M133,225.6l0.9,0l0.2,3.3c0.6-2.1,2.1-3.7,4-3.7l0.1,1.2l-0.1,0c-2.2,0.1-4,2.2-3.8,6l0.2,4.8l-0.9,0L133,225.6z"/>
	<path d="M141.5,225.7l0.9,0l0.1,2.6c0.7-1.6,1.9-3,3.7-3.1c2.3-0.1,4.7,2,4.9,5.8l0,0c0.2,3.8-2,6.2-4.2,6.3
		c-1.9,0.1-3.2-1.2-4-2.6l0.3,6.1l-0.9,0L141.5,225.7z M150.1,231.1L150.1,231.1c-0.2-3.1-2-5-3.9-4.9c-1.9,0.1-3.7,2.2-3.6,5.2l0,0
		c0.2,3,2.1,4.9,4.1,4.8C148.7,236.2,150.3,234.3,150.1,231.1z"/>
	<path d="M154.7,225.6l0.9,0l0.2,3.3c0.6-2.1,2.1-3.7,4-3.7l0.1,1.2l-0.1,0c-2.2,0.1-4,2.2-3.8,6l0.2,4.8l-0.9,0L154.7,225.6z"/>
	<path d="M162.8,231.6L162.8,231.6c-0.2-3.3,1.7-6.2,4.5-6.4c2.8-0.1,4.9,2.5,5.1,5.8l0,0c0.2,3.3-1.7,6.2-4.5,6.3
		C165.2,237.5,163,234.8,162.8,231.6z M171.5,231.1L171.5,231.1c-0.1-2.8-2-5-4.1-4.9c-2.2,0.1-3.7,2.5-3.6,5.2l0,0
		c0.1,2.8,2,4.9,4.1,4.8C170.1,236.2,171.6,233.9,171.5,231.1z"/>
	<path d="M177,234.2l-0.4-7.6l-1.4,0.1l-0.1-1l1.4-0.1l-0.2-3.7l0.9,0l0.2,3.7l3.3-0.2l0.1,1l-3.3,0.2l0.4,7.5
		c0.1,1.7,0.9,2.2,2,2.2c0.5,0,0.8-0.2,1.4-0.5l0.1,1c-0.5,0.3-0.9,0.5-1.5,0.5C178.3,237.3,177.1,236.4,177,234.2z"/>
	<path d="M184.2,231.5L184.2,231.5c-0.2-3.4,1.6-6.2,4.1-6.3c2.6-0.1,4.4,2.4,4.6,5.9c0,0.2,0,0.3,0,0.5l-7.8,0.4
		c0.3,2.9,2.1,4.5,3.9,4.4c1.5-0.1,2.4-0.9,3.1-2l0.7,0.7c-0.9,1.3-2,2.3-3.8,2.4C186.6,237.5,184.4,235.2,184.2,231.5z
		 M191.9,230.6c-0.3-2.3-1.4-4.4-3.6-4.3c-1.9,0.1-3.2,2.1-3.2,4.7L191.9,230.6z"/>
	<path d="M196,231.6L196,231.6c-0.2-3.3,1.8-6.2,4.5-6.4c1.8-0.1,2.9,0.9,3.9,1.9l-0.6,0.9c-0.9-1-1.8-1.8-3.2-1.7
		c-2.1,0.1-3.7,2.4-3.5,5.2l0,0c0.1,2.8,2,4.9,4.1,4.8c1.3-0.1,2.3-1,3-2.1l0.7,0.7c-0.9,1.4-2,2.4-3.7,2.5
		C198.4,237.5,196.2,234.8,196,231.6z"/>
	<path d="M208.9,234.2l-0.4-7.6l-1.4,0.1l-0.1-1l1.4-0.1l-0.2-3.7l0.9,0l0.2,3.7l3.3-0.2l0.1,1l-3.3,0.2l0.4,7.5
		c0.1,1.7,0.9,2.2,2,2.2c0.5,0,0.8-0.2,1.4-0.5l0.1,1c-0.5,0.3-0.9,0.5-1.5,0.5C210.2,237.3,209,236.4,208.9,234.2z"/>
	<path d="M216.2,221l1.1-0.1l0.1,1.5l-1.1,0.1L216.2,221z M216.5,225.5l0.9,0l0.6,11.6l-0.9,0L216.5,225.5z"/>
	<path d="M221.1,225.7l1-0.1l4.1,10.2l3-10.5l1-0.1l-3.6,11.9l-0.8,0L221.1,225.7z"/>
	<path d="M233.6,231.5L233.6,231.5c-0.2-3.4,1.6-6.2,4.1-6.3c2.6-0.1,4.4,2.4,4.6,5.9c0,0.2,0,0.3,0,0.5l-7.8,0.4
		c0.3,2.9,2.1,4.5,3.9,4.4c1.5-0.1,2.4-0.9,3.1-2l0.7,0.7c-0.9,1.3-2,2.3-3.8,2.4C236,237.5,233.8,235.2,233.6,231.5z M241.3,230.6
		c-0.3-2.3-1.4-4.4-3.6-4.3c-1.9,0.1-3.2,2.1-3.2,4.7L241.3,230.6z"/>
	<path d="M251.6,225.9l1-0.1l3.4,10.1l2.3-10.4l0.7,0l3.4,10.1l2.3-10.3l1-0.1l-2.8,11.9l-0.8,0l-3.3-9.8l-2.3,10.1l-0.8,0
		L251.6,225.9z"/>
	<path d="M269,220.7l0.9,0l0.4,7.2c0.6-1.4,1.5-2.5,3.3-2.6c2.4-0.1,3.8,1.8,4,4.6l0.4,7.1l-0.9,0l-0.4-6.9
		c-0.1-2.4-1.3-3.9-3.2-3.8c-1.8,0.1-3.2,1.9-3,4.3l0.4,6.7l-0.9,0L269,220.7z"/>
	<path d="M281.3,231.5L281.3,231.5c-0.2-3.4,1.6-6.2,4.1-6.3c2.6-0.1,4.4,2.4,4.6,5.9c0,0.2,0,0.3,0,0.5l-7.8,0.4
		c0.3,2.9,2.1,4.5,3.9,4.4c1.5-0.1,2.4-0.9,3.1-2l0.7,0.7c-0.9,1.3-2,2.3-3.8,2.4C283.8,237.5,281.5,235.2,281.3,231.5z
		 M289.1,230.6c-0.3-2.3-1.4-4.4-3.6-4.3c-1.9,0.1-3.2,2.1-3.2,4.7L289.1,230.6z"/>
	<path d="M293.5,225.7l0.9,0l0.1,2.2c0.6-1.4,1.5-2.5,3.3-2.6c2.4-0.1,3.8,1.8,4,4.6l0.4,7.1l-0.9,0l-0.4-6.9
		c-0.1-2.4-1.3-3.9-3.2-3.8c-1.8,0.1-3.2,1.9-3,4.3l0.4,6.7l-0.9,0L293.5,225.7z"/>
	<path d="M312.6,221.2l1,0l0.8,15.9l-1,0L312.6,221.2z"/>
	<path d="M318,225c0.8-0.5,1-1.1,0.9-1.9l-0.5,0l-0.1-1.9l1.2-0.1l0.1,1.7c0.1,1.4-0.3,2.2-1.4,2.8L318,225z"/>
	<path d="M324,225.9l0.9,0l0.1,2.1c0.5-1.2,1.3-2.4,3-2.5c1.6-0.1,2.7,1,3.3,2.3c0.5-1.3,1.5-2.6,3.2-2.7c2.2-0.1,3.7,1.7,3.9,4.7
		l0.4,7l-0.9,0l-0.4-6.9c-0.1-2.5-1.3-3.9-3-3.8c-1.6,0.1-2.9,1.7-2.7,4.3l0.4,6.8l-0.9,0l-0.4-7c-0.1-2.4-1.3-3.8-2.9-3.8
		c-1.7,0.1-2.9,2-2.8,4.3l0.3,6.7l-0.9,0L324,225.9z"/>
	<path d="M349.1,220.5l0.9,0l0.9,16.6l-0.9,0L349.1,220.5z"/>
	<path d="M354.6,231.5L354.6,231.5c-0.2-3.4,1.6-6.2,4.1-6.3c2.6-0.1,4.4,2.4,4.6,5.9c0,0.2,0,0.3,0,0.5l-7.8,0.4
		c0.3,2.9,2.1,4.5,3.9,4.4c1.5-0.1,2.4-0.9,3.1-2l0.7,0.7c-0.9,1.3-2,2.3-3.8,2.4C357,237.5,354.7,235.2,354.6,231.5z M362.3,230.6
		c-0.3-2.3-1.4-4.4-3.6-4.3c-1.9,0.1-3.2,2.1-3.2,4.7L362.3,230.6z"/>
	<path d="M366.4,234L366.4,234c-0.1-2.5,1.5-3.9,3.9-4c1.3-0.1,2.2,0.1,3.1,0.3l0-0.5c-0.1-2.3-1.3-3.5-3.3-3.4
		c-1.1,0.1-2.1,0.5-2.9,1.1l-0.4-1c1-0.6,2-1.1,3.3-1.2c1.3-0.1,2.3,0.3,3,1.1c0.7,0.7,1.1,1.8,1.1,3.2l0.4,7.2l-0.9,0l-0.1-1.9
		c-0.6,1.1-1.7,2.3-3.5,2.4C368.5,237.5,366.5,236.4,366.4,234z M373.6,232.6l-0.1-1.3c-0.8-0.2-1.9-0.4-3.2-0.4
		c-2,0.1-3,1.3-2.9,2.9l0,0c0.1,1.7,1.4,2.6,2.9,2.5C372.1,236.3,373.7,234.7,373.6,232.6z"/>
	<path d="M377.4,225.7l1-0.1l4.1,10.2l3-10.5l1-0.1l-3.6,11.9l-0.8,0L377.4,225.7z"/>
	<path d="M390,221l1.1-0.1l0.1,1.5l-1.1,0.1L390,221z M390.3,225.5l0.9,0l0.6,11.6l-0.9,0L390.3,225.5z"/>
	<path d="M395.9,225.7l0.9,0l0.1,2.2c0.6-1.4,1.5-2.5,3.3-2.6c2.4-0.1,3.8,1.8,4,4.6l0.4,7.1l-0.9,0l-0.4-6.9
		c-0.1-2.4-1.3-3.9-3.2-3.8c-1.8,0.1-3.2,1.9-3,4.3l0.4,6.7l-0.9,0L395.9,225.7z"/>
	<path d="M408.8,239.2l0.5-0.9c1.2,1,2.5,1.5,3.9,1.4c2.1-0.1,3.6-1.7,3.4-4.7l-0.1-1.7c-0.7,1.5-1.9,2.8-3.8,2.9
		c-2.3,0.1-4.6-1.9-4.8-5.2l0,0c-0.2-3.3,2-5.6,4.2-5.7c1.9-0.1,3.2,1.1,4,2.4l-0.1-2.3l0.9,0l0.5,9.8c0.1,1.7-0.3,3-1,4
		c-0.8,1-1.9,1.7-3.3,1.7C411.6,240.9,410.1,240.4,408.8,239.2z M416.4,230.6L416.4,230.6c-0.1-2.7-2.2-4.4-4.1-4.3
		c-2,0.1-3.5,1.9-3.4,4.6l0,0c0.1,2.6,1.9,4.4,3.8,4.2C414.7,235.1,416.5,233.2,416.4,230.6z"/>
	<path d="M28.3,251.3l-4.5,0.2l-0.1-1.1l9.9-0.5l0.1,1.1l-4.5,0.2l0.8,14.8l-1,0L28.3,251.3z"/>
	<path d="M37.7,254.6l0.9,0l0.2,3.3c0.6-2.1,2.1-3.7,4-3.7l0.1,1.2l-0.1,0c-2.2,0.1-4,2.2-3.8,6l0.2,4.8l-0.9,0L37.7,254.6z"/>
	<path d="M53.5,254.3l1-0.1l-3.4,12.2c-0.7,2.5-1.6,3.4-2.9,3.5c-0.7,0-1.2-0.1-1.9-0.4l0.3-1c0.5,0.3,0.9,0.4,1.6,0.3
		c1-0.1,1.6-0.8,2.2-2.9l-5.1-11.3l1-0.1l4.4,10.2L53.5,254.3z"/>
	<path d="M57.9,250l1.1-0.1l0.1,1.5l-1.1,0.1L57.9,250z M58.2,254.5l0.9,0l0.6,11.6l-0.9,0L58.2,254.5z"/>
	<path d="M63.8,254.7l0.9,0l0.1,2.2c0.6-1.4,1.5-2.5,3.2-2.6c2.4-0.1,3.8,1.8,4,4.6l0.4,7.1l-0.9,0l-0.4-6.9
		c-0.1-2.4-1.3-3.9-3.2-3.8c-1.8,0.1-3.2,1.9-3,4.3l0.4,6.7l-0.9,0L63.8,254.7z"/>
	<path d="M76.7,268.2l0.5-0.9c1.2,1,2.5,1.5,3.9,1.4c2.1-0.1,3.6-1.7,3.4-4.7l-0.1-1.7c-0.7,1.5-1.9,2.8-3.8,2.9
		c-2.3,0.1-4.6-1.9-4.8-5.2l0,0c-0.2-3.3,2-5.6,4.2-5.7c1.9-0.1,3.2,1.1,4,2.4l-0.1-2.3l0.9,0l0.5,9.8c0.1,1.7-0.3,3-1,4
		c-0.8,1-1.9,1.7-3.3,1.7C79.5,269.9,78,269.4,76.7,268.2z M84.3,259.6L84.3,259.6c-0.1-2.7-2.2-4.4-4.1-4.3c-2,0.1-3.5,1.9-3.4,4.6
		l0,0c0.1,2.6,1.9,4.4,3.8,4.2C82.6,264.1,84.4,262.2,84.3,259.6z"/>
	<path d="M97,263.2l-0.4-7.6l-1.4,0.1l-0.1-1l1.4-0.1l-0.2-3.7l0.9,0l0.2,3.7l3.3-0.2l0.1,1l-3.3,0.2l0.4,7.5c0.1,1.7,0.9,2.2,2,2.2
		c0.5,0,0.8-0.2,1.4-0.5l0.1,1c-0.5,0.3-0.9,0.5-1.5,0.5C98.3,266.3,97.1,265.4,97,263.2z"/>
	<path d="M104.2,260.6L104.2,260.6c-0.2-3.3,1.7-6.2,4.5-6.4c2.8-0.1,4.9,2.5,5.1,5.8l0,0c0.2,3.3-1.7,6.2-4.5,6.3
		C106.5,266.5,104.3,263.8,104.2,260.6z M112.8,260.1L112.8,260.1c-0.1-2.8-2-5-4.1-4.9c-2.2,0.1-3.7,2.5-3.6,5.2l0,0
		c0.1,2.8,2,4.9,4.1,4.8C111.5,265.2,113,262.9,112.8,260.1z"/>
	<path d="M123.7,260.6L123.7,260.6c-0.2-3.3,1.8-6.2,4.5-6.4c1.8-0.1,2.9,0.9,3.9,1.9l-0.6,0.9c-0.9-1-1.8-1.8-3.2-1.7
		c-2.1,0.1-3.7,2.4-3.5,5.2l0,0c0.1,2.8,2,4.9,4.1,4.8c1.3-0.1,2.3-1,3-2.1l0.7,0.7c-0.9,1.4-2,2.4-3.7,2.5
		C126.1,266.5,123.8,263.8,123.7,260.6z"/>
	<path d="M135.3,260.6L135.3,260.6c-0.2-3.3,1.7-6.2,4.5-6.4c2.8-0.1,4.9,2.5,5.1,5.8l0,0c0.2,3.3-1.7,6.2-4.5,6.3
		C137.6,266.5,135.4,263.8,135.3,260.6z M143.9,260.1L143.9,260.1c-0.1-2.8-2-5-4.1-4.9c-2.2,0.1-3.7,2.5-3.6,5.2l0,0
		c0.1,2.8,2,4.9,4.1,4.8C142.6,265.2,144.1,262.9,143.9,260.1z"/>
	<path d="M148.5,254.9l0.9,0l0.1,2.1c0.5-1.2,1.3-2.4,3-2.5c1.6-0.1,2.7,1,3.3,2.3c0.5-1.3,1.5-2.6,3.2-2.7c2.2-0.1,3.7,1.7,3.9,4.7
		l0.4,7l-0.9,0l-0.4-6.9c-0.1-2.5-1.3-3.9-3-3.8c-1.6,0.1-2.9,1.7-2.7,4.3l0.4,6.8l-0.9,0l-0.4-7c-0.1-2.4-1.3-3.8-2.9-3.8
		c-1.7,0.1-2.9,2-2.8,4.3l0.3,6.7l-0.9,0L148.5,254.9z"/>
	<path d="M167,254.7l0.9,0l0.1,2.6c0.7-1.6,1.9-3,3.7-3.1c2.3-0.1,4.7,2,4.9,5.8l0,0c0.2,3.8-2,6.2-4.2,6.3c-1.9,0.1-3.2-1.2-4-2.6
		l0.3,6.1l-0.9,0L167,254.7z M175.7,260.1L175.7,260.1c-0.2-3.1-2-5-3.9-4.9c-1.9,0.1-3.7,2.2-3.6,5.2l0,0c0.2,3,2.1,4.9,4.1,4.8
		C174.3,265.2,175.8,263.3,175.7,260.1z"/>
	<path d="M180.3,254.6l0.9,0l0.2,3.3c0.6-2.1,2.1-3.7,4-3.7l0.1,1.2l-0.1,0c-2.2,0.1-4,2.2-3.8,6l0.2,4.8l-0.9,0L180.3,254.6z"/>
	<path d="M188.4,260.6L188.4,260.6c-0.2-3.3,1.7-6.2,4.5-6.4c2.8-0.1,4.9,2.5,5.1,5.8l0,0c0.2,3.3-1.7,6.2-4.5,6.3
		C190.7,266.5,188.6,263.8,188.4,260.6z M197.1,260.1L197.1,260.1c-0.1-2.8-2-5-4.1-4.9c-2.2,0.1-3.7,2.5-3.6,5.2l0,0
		c0.1,2.8,2,4.9,4.1,4.8C195.7,265.2,197.2,262.9,197.1,260.1z"/>
	<path d="M201.6,254.9l0.9,0l0.1,2.1c0.5-1.2,1.3-2.4,3-2.5c1.6-0.1,2.7,1,3.3,2.3c0.5-1.3,1.5-2.6,3.2-2.7c2.2-0.1,3.7,1.7,3.9,4.7
		l0.4,7l-0.9,0l-0.4-6.9c-0.1-2.5-1.3-3.9-3-3.8c-1.6,0.1-2.9,1.7-2.7,4.3l0.4,6.8l-0.9,0l-0.4-7c-0.1-2.4-1.3-3.8-2.9-3.8
		c-1.7,0.1-2.9,2-2.8,4.3l0.3,6.7l-0.9,0L201.6,254.9z"/>
	<path d="M220,250l1.1-0.1l0.1,1.5l-1.1,0.1L220,250z M220.3,254.5l0.9,0l0.6,11.6l-0.9,0L220.3,254.5z"/>
	<path d="M225.6,264.8l0.5-0.9c1.1,0.9,2.2,1.4,3.4,1.3c1.3-0.1,2.2-1,2.1-2.3l0,0c-0.1-1.4-1.3-1.8-2.6-2.2c-1.6-0.5-3.3-0.9-3.4-3
		l0,0c-0.1-1.9,1.1-3.3,2.9-3.4c1.1-0.1,2.4,0.4,3.4,1.1l-0.4,1c-0.9-0.7-2-1.1-2.9-1c-1.3,0.1-2.1,1-2,2.1l0,0
		c0.1,1.3,1.4,1.7,2.7,2.1c1.5,0.4,3.1,1,3.3,3.1l0,0c0.1,2.1-1.3,3.5-3.1,3.6C228.2,266.4,226.6,265.8,225.6,264.8z"/>
	<path d="M235.8,260.5L235.8,260.5c-0.2-3.4,1.6-6.2,4.1-6.3c2.6-0.1,4.4,2.4,4.6,5.9c0,0.2,0,0.3,0,0.5l-7.8,0.4
		c0.3,2.9,2.1,4.5,3.9,4.4c1.5-0.1,2.4-0.9,3.1-2l0.7,0.7c-0.9,1.3-2,2.3-3.8,2.4C238.2,266.5,236,264.2,235.8,260.5z M243.5,259.6
		c-0.3-2.3-1.4-4.4-3.6-4.3c-1.9,0.1-3.2,2.1-3.2,4.7L243.5,259.6z"/>
	<path d="M256,263.8l0.1,2.5l-0.9,0l-0.9-16.6l0.9,0l0.4,7.6c0.7-1.6,1.9-3,3.7-3.1c2.3-0.1,4.7,2,4.9,5.8l0,0
		c0.2,3.8-2,6.2-4.2,6.3C258.1,266.5,256.8,265.2,256,263.8z M263.2,260.1L263.2,260.1c-0.2-3.1-2-5-3.9-4.9
		c-1.9,0.1-3.7,2.2-3.6,5.2l0,0c0.2,3,2.1,4.9,4.1,4.8C261.9,265.2,263.4,263.3,263.2,260.1z"/>
	<path d="M268,261.8l-0.4-7.1l0.9,0l0.4,6.9c0.1,2.4,1.3,3.9,3.2,3.8c1.8-0.1,3.2-1.9,3-4.3l-0.4-6.7l0.9,0l0.6,11.6l-0.9,0
		l-0.1-2.2c-0.6,1.4-1.5,2.5-3.3,2.6C269.6,266.5,268.2,264.6,268,261.8z"/>
	<path d="M281.1,263.2l-0.4-7.6l-1.4,0.1l-0.1-1l1.4-0.1l-0.2-3.7l0.9,0l0.2,3.7l3.3-0.2l0.1,1l-3.3,0.2l0.4,7.5
		c0.1,1.7,0.9,2.2,2,2.2c0.5,0,0.8-0.2,1.4-0.5l0.1,1c-0.5,0.3-0.9,0.5-1.5,0.5C282.5,266.3,281.3,265.4,281.1,263.2z"/>
	<path d="M295.4,250.2l1,0l0.8,15.9l-1,0L295.4,250.2z"/>
	<path d="M307.7,260.6L307.7,260.6c-0.2-3.3,1.8-6.2,4.5-6.4c1.8-0.1,2.9,0.9,3.9,1.9l-0.6,0.9c-0.9-1-1.8-1.8-3.2-1.7
		c-2.1,0.1-3.7,2.4-3.5,5.2l0,0c0.1,2.8,2,4.9,4.1,4.8c1.3-0.1,2.3-1,3-2.1l0.7,0.7c-0.9,1.4-2,2.4-3.7,2.5
		C310.1,266.5,307.9,263.8,307.7,260.6z"/>
	<path d="M319.3,263L319.3,263c-0.1-2.5,1.5-3.9,3.9-4c1.3-0.1,2.2,0.1,3.1,0.3l0-0.5c-0.1-2.3-1.3-3.5-3.3-3.4
		c-1.1,0.1-2.1,0.5-2.9,1.1l-0.4-1c1-0.6,2-1.1,3.3-1.2c1.3-0.1,2.3,0.3,3,1.1c0.7,0.7,1.1,1.8,1.1,3.2l0.4,7.2l-0.9,0l-0.1-1.9
		c-0.6,1.1-1.7,2.3-3.5,2.4C321.4,266.5,319.5,265.4,319.3,263z M326.5,261.6l-0.1-1.3c-0.8-0.2-1.9-0.4-3.2-0.4
		c-2,0.1-3,1.3-2.9,2.9l0,0c0.1,1.7,1.4,2.6,2.9,2.5C325,265.3,326.6,263.7,326.5,261.6z"/>
	<path d="M331.3,254.7l0.9,0l0.1,2.2c0.6-1.4,1.5-2.5,3.3-2.6c2.4-0.1,3.8,1.8,4,4.6l0.4,7.1l-0.9,0l-0.4-6.9
		c-0.1-2.4-1.3-3.9-3.2-3.8c-1.8,0.1-3.2,1.9-3,4.3l0.4,6.7l-0.9,0L331.3,254.7z"/>
	<path d="M343,254c0.8-0.5,1-1.1,0.9-1.9l-0.5,0l-0.1-1.9l1.2-0.1l0.1,1.7c0.1,1.4-0.3,2.2-1.4,2.8L343,254z"/>
	<path d="M350,263.2l-0.4-7.6l-1.4,0.1l-0.1-1l1.4-0.1l-0.2-3.7l0.9,0l0.2,3.7l3.3-0.2l0.1,1l-3.3,0.2l0.4,7.5
		c0.1,1.7,0.9,2.2,2,2.2c0.5,0,0.8-0.2,1.4-0.5l0.1,1c-0.5,0.3-0.9,0.5-1.5,0.5C351.3,266.3,350.1,265.4,350,263.2z"/>
	<path class="st1" d="M363.3,253.7l1.6-0.1l3.2,10.1l2.2-10.4l1.3-0.1l3.3,10.1l2.2-10.4l1.6-0.1l-2.9,13l-1.3,0.1l-3.3-9.9
		l-2.3,10.2l-1.4,0.1L363.3,253.7z"/>
	<path class="st1" d="M382.3,248.5l1.8-0.1l0.1,2.1l-1.8,0.1L382.3,248.5z M382.6,253.4l1.5-0.1l0.7,12.8l-1.5,0.1L382.6,253.4z"/>
	<path class="st1" d="M388.9,253.6l1.5-0.1l0.1,2.2c0.6-1.4,1.6-2.6,3.4-2.7c2.5-0.1,4,1.9,4.2,4.9l0.4,7.9l-1.5,0.1l-0.4-7.5
		c-0.1-2.4-1.2-3.8-3-3.7c-1.8,0.1-3,1.8-2.9,4.2l0.4,7.3l-1.5,0.1L388.9,253.6z"/>
	<path d="M29.4,288.8l-6-9.3l1.2-0.1l5.3,8.3l4.4-8.8l1.1-0.1l-5,9.9l0.3,6.3l-1,0L29.4,288.8z"/>
	<path d="M38.7,289.6L38.7,289.6c-0.2-3.3,1.7-6.2,4.5-6.4c2.8-0.1,4.9,2.5,5.1,5.8l0,0c0.2,3.3-1.7,6.2-4.5,6.3
		C41,295.5,38.8,292.8,38.7,289.6z M47.3,289.1L47.3,289.1c-0.1-2.8-2-5-4.1-4.9c-2.2,0.1-3.7,2.5-3.6,5.2l0,0
		c0.1,2.8,2,4.9,4.1,4.8C46,294.2,47.4,291.9,47.3,289.1z"/>
	<path d="M52,290.8l-0.4-7.1l0.9,0l0.4,6.9c0.1,2.4,1.3,3.9,3.2,3.8c1.8-0.1,3.2-1.9,3-4.3l-0.4-6.7l0.9,0l0.6,11.6l-0.9,0l-0.1-2.2
		c-0.6,1.4-1.5,2.5-3.2,2.6C53.7,295.5,52.2,293.6,52,290.8z"/>
	<path d="M70,283.9l1-0.1l3.4,10.1l2.3-10.4l0.7,0l3.4,10.1l2.3-10.3l1-0.1L81.2,295l-0.8,0l-3.3-9.8l-2.3,10.1l-0.8,0L70,283.9z"/>
	<path d="M87.4,292L87.4,292c-0.1-2.5,1.5-3.9,3.9-4c1.3-0.1,2.2,0.1,3.1,0.3l0-0.5c-0.1-2.3-1.3-3.5-3.3-3.4
		c-1.1,0.1-2.1,0.5-2.9,1.1l-0.4-1c1-0.6,2-1.1,3.3-1.2c1.3-0.1,2.3,0.3,3,1.1c0.7,0.7,1.1,1.8,1.1,3.2l0.4,7.2l-0.9,0l-0.1-1.9
		c-0.6,1.1-1.7,2.3-3.5,2.4C89.5,295.5,87.6,294.4,87.4,292z M94.6,290.6l-0.1-1.3c-0.8-0.2-1.9-0.4-3.2-0.4c-2,0.1-3,1.3-2.9,2.9
		l0,0c0.1,1.7,1.4,2.6,2.9,2.5C93.2,294.3,94.7,292.7,94.6,290.6z"/>
	<path d="M99.4,283.7l0.9,0l0.1,2.2c0.6-1.4,1.5-2.5,3.2-2.6c2.4-0.1,3.8,1.8,4,4.6l0.4,7.1l-0.9,0l-0.4-6.9
		c-0.1-2.4-1.3-3.9-3.2-3.8c-1.8,0.1-3.2,1.9-3,4.3l0.4,6.7l-0.9,0L99.4,283.7z"/>
	<path d="M111.8,283.7l0.9,0l0.1,2.2c0.6-1.4,1.5-2.5,3.2-2.6c2.4-0.1,3.8,1.8,4,4.6l0.4,7.1l-0.9,0l-0.4-6.9
		c-0.1-2.4-1.3-3.9-3.2-3.8c-1.8,0.1-3.2,1.9-3,4.3l0.4,6.7l-0.9,0L111.8,283.7z"/>
	<path d="M123.8,292L123.8,292c-0.1-2.5,1.5-3.9,3.9-4c1.3-0.1,2.2,0.1,3.1,0.3l0-0.5c-0.1-2.3-1.3-3.5-3.3-3.4
		c-1.1,0.1-2.1,0.5-2.9,1.1l-0.4-1c1-0.6,2-1.1,3.3-1.2c1.3-0.1,2.3,0.3,3,1.1c0.7,0.7,1.1,1.8,1.1,3.2l0.4,7.2l-0.9,0l-0.1-1.9
		c-0.6,1.1-1.7,2.3-3.5,2.4C125.9,295.5,124,294.4,123.8,292z M131,290.6l-0.1-1.3c-0.8-0.2-1.9-0.4-3.2-0.4c-2,0.1-3,1.3-2.9,2.9
		l0,0c0.1,1.7,1.4,2.6,2.9,2.5C129.6,294.3,131.1,292.7,131,290.6z"/>
	<path d="M142.5,283.9l0.9,0l0.1,2.1c0.5-1.2,1.3-2.4,3-2.5c1.6-0.1,2.7,1,3.3,2.3c0.5-1.3,1.5-2.6,3.2-2.7c2.2-0.1,3.7,1.7,3.9,4.7
		l0.4,7l-0.9,0l-0.4-6.9c-0.1-2.5-1.3-3.9-3-3.8c-1.6,0.1-2.9,1.7-2.7,4.3l0.4,6.8l-0.9,0l-0.4-7c-0.1-2.4-1.3-3.8-2.9-3.8
		c-1.7,0.1-2.9,2-2.8,4.3l0.3,6.7l-0.9,0L142.5,283.9z"/>
	<path d="M160.7,292L160.7,292c-0.1-2.5,1.5-3.9,3.9-4c1.3-0.1,2.2,0.1,3.1,0.3l0-0.5c-0.1-2.3-1.3-3.5-3.3-3.4
		c-1.1,0.1-2.1,0.5-2.9,1.1l-0.4-1c1-0.6,2-1.1,3.3-1.2c1.3-0.1,2.3,0.3,3,1.1c0.7,0.7,1.1,1.8,1.1,3.2l0.4,7.2l-0.9,0L168,293
		c-0.6,1.1-1.7,2.3-3.5,2.4C162.8,295.5,160.8,294.4,160.7,292z M167.9,290.6l-0.1-1.3c-0.8-0.2-1.9-0.4-3.2-0.4
		c-2,0.1-3,1.3-2.9,2.9l0,0c0.1,1.7,1.4,2.6,2.9,2.5C166.4,294.3,168,292.7,167.9,290.6z"/>
	<path d="M172.4,278.7l0.9,0l0.7,12.5l5.4-7.7l1.2-0.1l-3.8,5.4l4.6,6.2l-1.1,0.1l-4-5.5l-2.1,3l0.1,2.8l-0.9,0L172.4,278.7z"/>
	<path d="M183.8,289.5L183.8,289.5c-0.2-3.4,1.6-6.2,4.1-6.3c2.6-0.1,4.4,2.4,4.6,5.9c0,0.2,0,0.3,0,0.5l-7.8,0.4
		c0.3,2.9,2.1,4.5,3.9,4.4c1.5-0.1,2.4-0.9,3.1-2l0.7,0.7c-0.9,1.3-2,2.3-3.8,2.4C186.2,295.5,184,293.2,183.8,289.5z M191.5,288.6
		c-0.3-2.3-1.4-4.4-3.6-4.3c-1.9,0.1-3.2,2.1-3.2,4.7L191.5,288.6z"/>
	<path d="M202.2,292L202.2,292c-0.1-2.5,1.5-3.9,3.9-4c1.3-0.1,2.2,0.1,3.1,0.3l0-0.5c-0.1-2.3-1.3-3.5-3.3-3.4
		c-1.1,0.1-2.1,0.5-2.9,1.1l-0.4-1c1-0.6,2-1.1,3.3-1.2c1.3-0.1,2.3,0.3,3,1.1c0.7,0.7,1.1,1.8,1.1,3.2l0.4,7.2l-0.9,0l-0.1-1.9
		c-0.6,1.1-1.7,2.3-3.5,2.4C204.3,295.5,202.4,294.4,202.2,292z M209.4,290.6l-0.1-1.3c-0.8-0.2-1.9-0.4-3.2-0.4
		c-2,0.1-3,1.3-2.9,2.9l0,0c0.1,1.7,1.4,2.6,2.9,2.5C207.9,294.3,209.5,292.7,209.4,290.6z"/>
	<path d="M220.8,283.7l0.9,0l0.1,2.6c0.7-1.6,1.9-3,3.7-3.1c2.3-0.1,4.7,2,4.9,5.8l0,0c0.2,3.8-2,6.2-4.2,6.3
		c-1.9,0.1-3.2-1.2-4-2.6l0.3,6.1l-0.9,0L220.8,283.7z M229.5,289.1L229.5,289.1c-0.2-3.1-2-5-3.9-4.9c-1.9,0.1-3.7,2.2-3.6,5.2l0,0
		c0.2,3,2.1,4.9,4.1,4.8C228.1,294.2,229.7,292.3,229.5,289.1z"/>
	<path d="M233.7,289.6L233.7,289.6c-0.2-3.3,1.7-6.2,4.5-6.4c2.8-0.1,4.9,2.5,5.1,5.8l0,0c0.2,3.3-1.7,6.2-4.5,6.3
		C236.1,295.5,233.9,292.8,233.7,289.6z M242.4,289.1L242.4,289.1c-0.1-2.8-2-5-4.1-4.9c-2.2,0.1-3.7,2.5-3.6,5.2l0,0
		c0.1,2.8,2,4.9,4.1,4.8C241.1,294.2,242.5,291.9,242.4,289.1z"/>
	<path d="M246.7,279l1.1-0.1l0.1,1.5l-1.1,0.1L246.7,279z M247.1,283.5l0.9,0l0.6,11.6l-0.9,0L247.1,283.5z"/>
	<path d="M252.6,283.7l0.9,0l0.1,2.2c0.6-1.4,1.5-2.5,3.2-2.6c2.4-0.1,3.8,1.8,4,4.6l0.4,7.1l-0.9,0L260,288
		c-0.1-2.4-1.3-3.9-3.2-3.8c-1.8,0.1-3.2,1.9-3,4.3l0.4,6.7l-0.9,0L252.6,283.7z"/>
	<path d="M266,292.2l-0.4-7.6l-1.4,0.1l-0.1-1l1.4-0.1l-0.2-3.7l0.9,0l0.2,3.7l3.3-0.2l0.1,1l-3.3,0.2l0.4,7.5
		c0.1,1.7,0.9,2.2,2,2.2c0.5,0,0.8-0.2,1.4-0.5l0.1,1c-0.5,0.3-0.9,0.5-1.5,0.5C267.3,295.3,266.1,294.4,266,292.2z"/>
	<path d="M281.5,292.8l0.1,2.5l-0.9,0l-0.9-16.6l0.9,0l0.4,7.6c0.7-1.6,1.9-3,3.7-3.1c2.3-0.1,4.7,2,4.9,5.8l0,0
		c0.2,3.8-2,6.2-4.2,6.3C283.6,295.5,282.3,294.2,281.5,292.8z M288.7,289.1L288.7,289.1c-0.2-3.1-2-5-3.9-4.9
		c-1.9,0.1-3.7,2.2-3.6,5.2l0,0c0.2,3,2.1,4.9,4.1,4.8C287.4,294.2,288.9,292.3,288.7,289.1z"/>
	<path d="M293.5,290.8l-0.4-7.1l0.9,0l0.4,6.9c0.1,2.4,1.3,3.9,3.2,3.8c1.8-0.1,3.2-1.9,3-4.3l-0.4-6.7l0.9,0l0.6,11.6l-0.9,0
		l-0.1-2.2c-0.6,1.4-1.5,2.5-3.3,2.6C295.2,295.5,293.7,293.6,293.5,290.8z"/>
	<path d="M306.7,292.2l-0.4-7.6l-1.4,0.1l-0.1-1l1.4-0.1l-0.2-3.7l0.9,0l0.2,3.7l3.3-0.2l0.1,1l-3.3,0.2l0.4,7.5
		c0.1,1.7,0.9,2.2,2,2.2c0.5,0,0.8-0.2,1.4-0.5l0.1,1c-0.5,0.3-0.9,0.5-1.5,0.5C308,295.3,306.8,294.4,306.7,292.2z"/>
	<path d="M328.1,283.3l1-0.1l-3.4,12.2c-0.7,2.5-1.6,3.4-2.9,3.5c-0.7,0-1.2-0.1-1.9-0.4l0.3-1c0.5,0.3,0.9,0.4,1.6,0.3
		c1-0.1,1.6-0.8,2.2-2.9l-5.1-11.3l1-0.1l4.4,10.2L328.1,283.3z"/>
	<path d="M332.4,289.6L332.4,289.6c-0.2-3.3,1.7-6.2,4.5-6.4c2.8-0.1,4.9,2.5,5.1,5.8l0,0c0.2,3.3-1.7,6.2-4.5,6.3
		C334.7,295.5,332.5,292.8,332.4,289.6z M341,289.1L341,289.1c-0.1-2.8-2-5-4.1-4.9c-2.2,0.1-3.7,2.5-3.6,5.2l0,0
		c0.1,2.8,2,4.9,4.1,4.8C339.7,294.2,341.2,291.9,341,289.1z"/>
	<path d="M345.8,290.8l-0.4-7.1l0.9,0l0.4,6.9c0.1,2.4,1.3,3.9,3.2,3.8c1.8-0.1,3.2-1.9,3-4.3l-0.4-6.7l0.9,0l0.6,11.6l-0.9,0
		l-0.1-2.2c-0.6,1.4-1.5,2.5-3.3,2.6C347.4,295.5,345.9,293.6,345.8,290.8z"/>
	<path d="M364.3,278.7l0.9,0l0.7,12.5l5.4-7.7l1.2-0.1l-3.8,5.4l4.6,6.2l-1.1,0.1l-4-5.5l-2.1,3l0.1,2.8l-0.9,0L364.3,278.7z"/>
	<path d="M375.6,289.5L375.6,289.5c-0.2-3.4,1.6-6.2,4.1-6.3c2.6-0.1,4.4,2.4,4.6,5.9c0,0.2,0,0.3,0,0.5l-7.8,0.4
		c0.3,2.9,2.1,4.5,3.9,4.4c1.5-0.1,2.4-0.9,3.1-2l0.7,0.7c-0.9,1.3-2,2.3-3.8,2.4C378.1,295.5,375.8,293.2,375.6,289.5z
		 M383.4,288.6c-0.3-2.3-1.4-4.4-3.6-4.3c-1.9,0.1-3.2,2.1-3.2,4.7L383.4,288.6z"/>
	<path d="M387.5,289.5L387.5,289.5c-0.2-3.4,1.6-6.2,4.1-6.3c2.6-0.1,4.4,2.4,4.6,5.9c0,0.2,0,0.3,0,0.5l-7.8,0.4
		c0.3,2.9,2.1,4.5,3.9,4.4c1.5-0.1,2.4-0.9,3.1-2l0.7,0.7c-0.9,1.3-2,2.3-3.8,2.4C389.9,295.5,387.7,293.2,387.5,289.5z
		 M395.2,288.6c-0.3-2.3-1.4-4.4-3.6-4.3c-1.9,0.1-3.2,2.1-3.2,4.7L395.2,288.6z"/>
	<path d="M399.7,283.7l0.9,0l0.1,2.6c0.7-1.6,1.9-3,3.7-3.1c2.3-0.1,4.7,2,4.9,5.8l0,0c0.2,3.8-2,6.2-4.2,6.3
		c-1.9,0.1-3.2-1.2-4-2.6l0.3,6.1l-0.9,0L399.7,283.7z M408.3,289.1L408.3,289.1c-0.2-3.1-2-5-3.9-4.9c-1.9,0.1-3.7,2.2-3.6,5.2l0,0
		c0.2,3,2.1,4.9,4.1,4.8C406.9,294.2,408.5,292.3,408.3,289.1z"/>
	<path d="M419.5,283.7l0.9,0l0.1,2.6c0.7-1.6,1.9-3,3.7-3.1c2.3-0.1,4.7,2,4.9,5.8l0,0c0.2,3.8-2,6.2-4.2,6.3
		c-1.9,0.1-3.2-1.2-4-2.6l0.3,6.1l-0.9,0L419.5,283.7z M428.2,289.1L428.2,289.1c-0.2-3.1-2-5-3.9-4.9c-1.9,0.1-3.7,2.2-3.6,5.2l0,0
		c0.2,3,2.1,4.9,4.1,4.8C426.8,294.2,428.3,292.3,428.2,289.1z"/>
	<path d="M432.8,283.6l0.9,0l0.2,3.3c0.6-2.1,2.1-3.7,4-3.7l0.1,1.2l-0.1,0c-2.2,0.1-4,2.2-3.8,6l0.2,4.8l-0.9,0L432.8,283.6z"/>
	<path d="M440.9,289.5L440.9,289.5c-0.2-3.4,1.6-6.2,4.1-6.3c2.6-0.1,4.4,2.4,4.6,5.9c0,0.2,0,0.3,0,0.5l-7.8,0.4
		c0.3,2.9,2.1,4.5,3.9,4.4c1.5-0.1,2.4-0.9,3.1-2l0.7,0.7c-0.9,1.3-2,2.3-3.8,2.4C443.3,295.5,441.1,293.2,440.9,289.5z
		 M448.6,288.6c-0.3-2.3-1.4-4.4-3.6-4.3c-1.9,0.1-3.2,2.1-3.2,4.7L448.6,288.6z"/>
	<path d="M452.7,292L452.7,292c-0.1-2.5,1.5-3.9,3.9-4c1.3-0.1,2.2,0.1,3.1,0.3l0-0.5c-0.1-2.3-1.3-3.5-3.3-3.4
		c-1.1,0.1-2.1,0.5-2.9,1.1l-0.4-1c1-0.6,2-1.1,3.3-1.2c1.3-0.1,2.3,0.3,3,1.1c0.7,0.7,1.1,1.8,1.1,3.2l0.4,7.2l-0.9,0L460,293
		c-0.6,1.1-1.7,2.3-3.5,2.4C454.8,295.5,452.8,294.4,452.7,292z M459.9,290.6l-0.1-1.3c-0.8-0.2-1.9-0.4-3.2-0.4
		c-2,0.1-3,1.3-2.9,2.9l0,0c0.1,1.7,1.4,2.6,2.9,2.5C458.4,294.3,460,292.7,459.9,290.6z"/>
	<path d="M464.4,289.6L464.4,289.6c-0.2-3.3,1.8-6.2,4.5-6.4c1.8-0.1,2.9,0.9,3.9,1.9l-0.6,0.9c-0.9-1-1.8-1.8-3.2-1.7
		c-2.1,0.1-3.7,2.4-3.5,5.2l0,0c0.1,2.8,2,4.9,4.1,4.8c1.3-0.1,2.3-1,3-2.1l0.7,0.7c-0.9,1.4-2,2.4-3.7,2.5
		C466.8,295.5,464.6,292.8,464.4,289.6z"/>
	<path d="M476.1,278.7l0.9,0l0.4,7.2c0.6-1.4,1.5-2.5,3.3-2.6c2.4-0.1,3.8,1.8,4,4.6l0.4,7.1l-0.9,0l-0.4-6.9
		c-0.1-2.4-1.3-3.9-3.2-3.8c-1.8,0.1-3.2,1.9-3,4.3l0.4,6.7l-0.9,0L476.1,278.7z"/>
	<path d="M488.5,279l1.1-0.1l0.1,1.5l-1.1,0.1L488.5,279z M488.8,283.5l0.9,0l0.6,11.6l-0.9,0L488.8,283.5z"/>
	<path d="M494.4,283.7l0.9,0l0.1,2.2c0.6-1.4,1.5-2.5,3.3-2.6c2.4-0.1,3.8,1.8,4,4.6l0.4,7.1l-0.9,0l-0.4-6.9
		c-0.1-2.4-1.3-3.9-3.2-3.8c-1.8,0.1-3.2,1.9-3,4.3l0.4,6.7l-0.9,0L494.4,283.7z"/>
	<path d="M507.3,297.2l0.5-0.9c1.2,1,2.5,1.5,3.9,1.4c2.1-0.1,3.6-1.7,3.4-4.7l-0.1-1.7c-0.7,1.5-1.9,2.8-3.8,2.9
		c-2.3,0.1-4.6-1.9-4.8-5.2l0,0c-0.2-3.3,2-5.6,4.2-5.7c1.9-0.1,3.2,1.1,4,2.4l-0.1-2.3l0.9,0l0.5,9.8c0.1,1.7-0.3,3-1,4
		c-0.8,1-1.9,1.7-3.3,1.7C510.1,298.9,508.6,298.4,507.3,297.2z M514.9,288.6L514.9,288.6c-0.1-2.7-2.2-4.4-4.1-4.3
		c-2,0.1-3.5,1.9-3.4,4.6l0,0c0.1,2.6,1.9,4.4,3.8,4.2C513.2,293.1,515,291.2,514.9,288.6z"/>
	<path d="M29.4,317.8l-6-9.3l1.2-0.1l5.3,8.3l4.4-8.8l1.1-0.1l-5,9.9l0.3,6.3l-1,0L29.4,317.8z"/>
	<path d="M38.7,318.6L38.7,318.6c-0.2-3.3,1.7-6.2,4.5-6.4c2.8-0.1,4.9,2.5,5.1,5.8l0,0c0.2,3.3-1.7,6.2-4.5,6.3
		C41,324.5,38.8,321.8,38.7,318.6z M47.3,318.1L47.3,318.1c-0.1-2.8-2-5-4.1-4.9c-2.2,0.1-3.7,2.5-3.6,5.2l0,0
		c0.1,2.8,2,4.9,4.1,4.8C46,323.2,47.4,320.9,47.3,318.1z"/>
	<path d="M52,319.8l-0.4-7.1l0.9,0l0.4,6.9c0.1,2.4,1.3,3.9,3.2,3.8c1.8-0.1,3.2-1.9,3-4.3l-0.4-6.7l0.9,0l0.6,11.6l-0.9,0l-0.1-2.2
		c-0.6,1.4-1.5,2.5-3.2,2.6C53.7,324.5,52.2,322.6,52,319.8z"/>
	<path d="M70.6,307.7l0.9,0l0.4,7.2c0.6-1.4,1.5-2.5,3.2-2.6c2.4-0.1,3.8,1.8,4,4.6l0.4,7.1l-0.9,0l-0.4-6.9
		c-0.1-2.4-1.3-3.9-3.2-3.8c-1.8,0.1-3.2,1.9-3,4.3l0.4,6.7l-0.9,0L70.6,307.7z"/>
	<path d="M82.9,321L82.9,321c-0.1-2.5,1.5-3.9,3.9-4c1.3-0.1,2.2,0.1,3.1,0.3l0-0.5c-0.1-2.3-1.3-3.5-3.3-3.4
		c-1.1,0.1-2.1,0.5-2.9,1.1l-0.4-1c1-0.6,2-1.1,3.3-1.2c1.3-0.1,2.3,0.3,3,1.1c0.7,0.7,1.1,1.8,1.1,3.2l0.4,7.2l-0.9,0l-0.1-1.9
		c-0.6,1.1-1.7,2.3-3.5,2.4C85,324.5,83,323.4,82.9,321z M90.1,319.6l-0.1-1.3c-0.8-0.2-1.9-0.4-3.2-0.4c-2,0.1-3,1.3-2.9,2.9l0,0
		c0.1,1.7,1.4,2.6,2.9,2.5C88.6,323.3,90.2,321.7,90.1,319.6z"/>
	<path d="M94.6,318.6L94.6,318.6c-0.2-3.8,2-6.2,4.2-6.4c1.9-0.1,3.2,1.2,4,2.6l-0.4-7.5l0.9,0l0.9,16.6l-0.9,0l-0.1-2.6
		c-0.7,1.6-1.9,3-3.7,3.1C97.2,324.5,94.8,322.4,94.6,318.6z M103,318.1L103,318.1c-0.2-3-2.1-4.9-4.1-4.8c-2,0.1-3.6,2-3.4,5.2l0,0
		c0.2,3.1,2,4.9,3.9,4.8C101.4,323.2,103.2,321.1,103,318.1z"/>
	<path d="M114.7,312.9l0.9,0l0.1,2.1c0.5-1.2,1.3-2.4,3-2.5c1.6-0.1,2.7,1,3.3,2.3c0.5-1.3,1.5-2.6,3.2-2.7c2.2-0.1,3.7,1.7,3.9,4.7
		l0.4,7l-0.9,0l-0.4-6.9c-0.1-2.5-1.3-3.9-3-3.8c-1.6,0.1-2.9,1.7-2.7,4.3l0.4,6.8l-0.9,0l-0.4-7c-0.1-2.4-1.3-3.8-2.9-3.8
		c-1.7,0.1-2.9,2-2.8,4.3l0.3,6.7l-0.9,0L114.7,312.9z"/>
	<path d="M133,318.5L133,318.5c-0.2-3.4,1.6-6.2,4.1-6.3c2.6-0.1,4.4,2.4,4.6,5.9c0,0.2,0,0.3,0,0.5l-7.8,0.4
		c0.3,2.9,2.1,4.5,3.9,4.4c1.5-0.1,2.4-0.9,3.1-2l0.7,0.7c-0.9,1.3-2,2.3-3.8,2.4C135.4,324.5,133.2,322.2,133,318.5z M140.7,317.6
		c-0.3-2.3-1.4-4.4-3.6-4.3c-1.9,0.1-3.2,2.1-3.2,4.7L140.7,317.6z"/>
	<path d="M152.4,313.6l-1.4,0.1l-0.1-1l1.4-0.1l-0.1-1.1c-0.1-1.3,0.2-2.4,0.7-3.1c0.4-0.6,1.1-1,1.9-1c0.6,0,1,0,1.4,0.2l0.1,1
		c-0.5-0.2-0.9-0.2-1.4-0.2c-1.3,0.1-1.8,1.1-1.7,3l0.1,1.1l3.3-0.2l0.1,1l-3.3,0.2l0.6,10.6l-0.9,0L152.4,313.6z"/>
	<path d="M159.6,312.6l0.9,0l0.2,3.3c0.6-2.1,2.1-3.7,4-3.7l0.1,1.2l-0.1,0c-2.2,0.1-4,2.2-3.8,6l0.2,4.8l-0.9,0L159.6,312.6z"/>
	<path d="M167.7,318.6L167.7,318.6c-0.2-3.3,1.7-6.2,4.5-6.4c2.8-0.1,4.9,2.5,5.1,5.8l0,0c0.2,3.3-1.7,6.2-4.5,6.3
		C170,324.5,167.9,321.8,167.7,318.6z M176.3,318.1L176.3,318.1c-0.1-2.8-2-5-4.1-4.9c-2.2,0.1-3.7,2.5-3.6,5.2l0,0
		c0.1,2.8,2,4.9,4.1,4.8C175,323.2,176.5,320.9,176.3,318.1z"/>
	<path d="M180.9,312.9l0.9,0l0.1,2.1c0.5-1.2,1.3-2.4,3-2.5c1.6-0.1,2.7,1,3.3,2.3c0.5-1.3,1.5-2.6,3.2-2.7c2.2-0.1,3.7,1.7,3.9,4.7
		l0.4,7l-0.9,0l-0.4-6.9c-0.1-2.5-1.3-3.9-3-3.8c-1.6,0.1-2.9,1.7-2.7,4.3l0.4,6.8l-0.9,0l-0.4-7c-0.1-2.4-1.3-3.8-2.9-3.8
		c-1.7,0.1-2.9,2-2.8,4.3l0.3,6.7l-0.9,0L180.9,312.9z"/>
	<path d="M207,321.2l-0.4-7.6l-1.4,0.1l-0.1-1l1.4-0.1l-0.2-3.7l0.9,0l0.2,3.7l3.3-0.2l0.1,1l-3.3,0.2l0.4,7.5
		c0.1,1.7,0.9,2.2,2,2.2c0.5,0,0.8-0.2,1.4-0.5l0.1,1c-0.5,0.3-0.9,0.5-1.5,0.5C208.4,324.3,207.2,323.4,207,321.2z"/>
	<path d="M214.3,307.7l0.9,0l0.4,7.2c0.6-1.4,1.5-2.5,3.2-2.6c2.4-0.1,3.8,1.8,4,4.6l0.4,7.1l-0.9,0l-0.4-6.9
		c-0.1-2.4-1.3-3.9-3.2-3.8c-1.8,0.1-3.2,1.9-3,4.3l0.4,6.7l-0.9,0L214.3,307.7z"/>
	<path d="M226.6,318.5L226.6,318.5c-0.2-3.4,1.6-6.2,4.1-6.3c2.6-0.1,4.4,2.4,4.6,5.9c0,0.2,0,0.3,0,0.5l-7.8,0.4
		c0.3,2.9,2.1,4.5,3.9,4.4c1.5-0.1,2.4-0.9,3.1-2l0.7,0.7c-0.9,1.3-2,2.3-3.8,2.4C229,324.5,226.8,322.2,226.6,318.5z M234.3,317.6
		c-0.3-2.3-1.4-4.4-3.6-4.3c-1.9,0.1-3.2,2.1-3.2,4.7L234.3,317.6z"/>
	<path d="M245.1,322.8l0.5-0.9c1.1,0.9,2.2,1.4,3.4,1.3c1.3-0.1,2.2-1,2.1-2.3l0,0c-0.1-1.4-1.3-1.8-2.6-2.2c-1.6-0.5-3.3-0.9-3.4-3
		l0,0c-0.1-1.9,1.1-3.3,2.9-3.4c1.1-0.1,2.4,0.4,3.4,1.1l-0.4,1c-0.9-0.7-2-1.1-2.9-1c-1.3,0.1-2.1,1-2,2.1l0,0
		c0.1,1.3,1.4,1.7,2.7,2.1c1.5,0.4,3.1,1,3.3,3.1l0,0c0.1,2.1-1.3,3.5-3.1,3.6C247.7,324.4,246.2,323.8,245.1,322.8z"/>
	<path d="M256.6,321.2l-0.4-7.6l-1.4,0.1l-0.1-1l1.4-0.1l-0.2-3.7l0.9,0l0.2,3.7l3.3-0.2l0.1,1l-3.3,0.2l0.4,7.5
		c0.1,1.7,0.9,2.2,2,2.2c0.5,0,0.8-0.2,1.4-0.5l0.1,1c-0.5,0.3-0.9,0.5-1.5,0.5C257.9,324.3,256.7,323.4,256.6,321.2z"/>
	<path d="M263.8,321L263.8,321c-0.1-2.5,1.5-3.9,3.9-4c1.3-0.1,2.2,0.1,3.1,0.3l0-0.5c-0.1-2.3-1.3-3.5-3.3-3.4
		c-1.1,0.1-2.1,0.5-2.9,1.1l-0.4-1c1-0.6,2-1.1,3.3-1.2c1.3-0.1,2.3,0.3,3,1.1c0.7,0.7,1.1,1.8,1.1,3.2l0.4,7.2l-0.9,0L271,322
		c-0.6,1.1-1.7,2.3-3.5,2.4C265.8,324.5,263.9,323.4,263.8,321z M270.9,319.6l-0.1-1.3c-0.8-0.2-1.9-0.4-3.2-0.4
		c-2,0.1-3,1.3-2.9,2.9l0,0c0.1,1.7,1.4,2.6,2.9,2.5C269.5,323.3,271,321.7,270.9,319.6z"/>
	<path d="M275.8,312.6l0.9,0l0.2,3.3c0.6-2.1,2.1-3.7,4-3.7l0.1,1.2l-0.1,0c-2.2,0.1-4,2.2-3.8,6l0.2,4.8l-0.9,0L275.8,312.6z"/>
	<path d="M285.2,321.2l-0.4-7.6l-1.4,0.1l-0.1-1l1.4-0.1l-0.2-3.7l0.9,0l0.2,3.7l3.3-0.2l0.1,1l-3.3,0.2l0.4,7.5
		c0.1,1.7,0.9,2.2,2,2.2c0.5,0,0.8-0.2,1.4-0.5l0.1,1c-0.5,0.3-0.9,0.5-1.5,0.5C286.5,324.3,285.3,323.4,285.2,321.2z"/>
	<path d="M298.5,312.9l1-0.1l3.4,10.1l2.3-10.4l0.7,0l3.4,10.1l2.3-10.3l1-0.1l-2.8,11.9l-0.8,0l-3.3-9.8l-2.3,10.1l-0.8,0
		L298.5,312.9z"/>
	<path d="M315.9,318.6L315.9,318.6c-0.2-3.3,1.7-6.2,4.5-6.4c2.8-0.1,4.9,2.5,5.1,5.8l0,0c0.2,3.3-1.7,6.2-4.5,6.3
		C318.2,324.5,316.1,321.8,315.9,318.6z M324.5,318.1L324.5,318.1c-0.1-2.8-2-5-4.1-4.9c-2.2,0.1-3.7,2.5-3.6,5.2l0,0
		c0.1,2.8,2,4.9,4.1,4.8C323.2,323.2,324.7,320.9,324.5,318.1z"/>
	<path d="M329.1,312.7l0.9,0l0.1,2.2c0.6-1.4,1.5-2.5,3.3-2.6c2.4-0.1,3.8,1.8,4,4.6l0.4,7.1l-0.9,0l-0.4-6.9
		c-0.1-2.4-1.3-3.9-3.2-3.8c-1.8,0.1-3.2,1.9-3,4.3l0.4,6.7l-0.9,0L329.1,312.7z"/>
	<path d="M340.8,312c0.8-0.5,1-1.1,0.9-1.9l-0.5,0l-0.1-1.9l1.2-0.1l0.1,1.7c0.1,1.4-0.3,2.2-1.4,2.8L340.8,312z"/>
	<path d="M347.8,321.2l-0.4-7.6l-1.4,0.1l-0.1-1l1.4-0.1l-0.2-3.7l0.9,0l0.2,3.7l3.3-0.2l0.1,1l-3.3,0.2l0.4,7.5
		c0.1,1.7,0.9,2.2,2,2.2c0.5,0,0.8-0.2,1.4-0.5l0.1,1c-0.5,0.3-0.9,0.5-1.5,0.5C349.1,324.3,347.9,323.4,347.8,321.2z"/>
	<path d="M361.8,307.5l0.9,0l0.9,16.6l-0.9,0L361.8,307.5z"/>
	<path d="M367.3,318.5L367.3,318.5c-0.2-3.4,1.6-6.2,4.1-6.3c2.6-0.1,4.4,2.4,4.6,5.9c0,0.2,0,0.3,0,0.5l-7.8,0.4
		c0.3,2.9,2.1,4.5,3.9,4.4c1.5-0.1,2.4-0.9,3.1-2l0.7,0.7c-0.9,1.3-2,2.3-3.8,2.4C369.7,324.5,367.4,322.2,367.3,318.5z M375,317.6
		c-0.3-2.3-1.4-4.4-3.6-4.3c-1.9,0.1-3.2,2.1-3.2,4.7L375,317.6z"/>
	<path d="M380.4,321.2l-0.4-7.6l-1.4,0.1l-0.1-1l1.4-0.1l-0.2-3.7l0.9,0l0.2,3.7l3.3-0.2l0.1,1l-3.3,0.2l0.4,7.5
		c0.1,1.7,0.9,2.2,2,2.2c0.5,0,0.8-0.2,1.4-0.5l0.1,1c-0.5,0.3-0.9,0.5-1.5,0.5C381.7,324.3,380.5,323.4,380.4,321.2z"/>
	<path d="M395.5,321.2l-0.4-7.6l-1.4,0.1l-0.1-1l1.4-0.1l-0.2-3.7l0.9,0l0.2,3.7l3.3-0.2l0.1,1l-3.3,0.2l0.4,7.5
		c0.1,1.7,0.9,2.2,2,2.2c0.5,0,0.8-0.2,1.4-0.5l0.1,1c-0.5,0.3-0.9,0.5-1.5,0.5C396.8,324.3,395.6,323.4,395.5,321.2z"/>
	<path d="M402.7,307.7l0.9,0l0.4,7.2c0.6-1.4,1.5-2.5,3.3-2.6c2.4-0.1,3.8,1.8,4,4.6l0.4,7.1l-0.9,0l-0.4-6.9
		c-0.1-2.4-1.3-3.9-3.2-3.8c-1.8,0.1-3.2,1.9-3,4.3l0.4,6.7l-0.9,0L402.7,307.7z"/>
	<path d="M415.1,308l1.1-0.1l0.1,1.5l-1.1,0.1L415.1,308z M415.5,312.5l0.9,0l0.6,11.6l-0.9,0L415.5,312.5z"/>
	<path d="M420.8,322.8l0.5-0.9c1.1,0.9,2.2,1.4,3.4,1.3c1.3-0.1,2.2-1,2.1-2.3l0,0c-0.1-1.4-1.3-1.8-2.6-2.2c-1.6-0.5-3.3-0.9-3.4-3
		l0,0c-0.1-1.9,1.1-3.3,2.9-3.4c1.1-0.1,2.4,0.4,3.4,1.1l-0.4,1c-0.9-0.7-2-1.1-2.9-1c-1.3,0.1-2.1,1-2,2.1l0,0
		c0.1,1.3,1.4,1.7,2.7,2.1c1.5,0.4,3.1,1,3.3,3.1l0,0c0.1,2.1-1.3,3.5-3.1,3.6C423.3,324.4,421.8,323.8,420.8,322.8z"/>
	<path d="M437.6,318.5L437.6,318.5c-0.2-3.4,1.6-6.2,4.1-6.3c2.6-0.1,4.4,2.4,4.6,5.9c0,0.2,0,0.3,0,0.5l-7.8,0.4
		c0.3,2.9,2.1,4.5,3.9,4.4c1.5-0.1,2.4-0.9,3.1-2l0.7,0.7c-0.9,1.3-2,2.3-3.8,2.4C440,324.5,437.8,322.2,437.6,318.5z M445.3,317.6
		c-0.3-2.3-1.4-4.4-3.6-4.3c-1.9,0.1-3.2,2.1-3.2,4.7L445.3,317.6z"/>
	<path d="M449.8,312.7l0.9,0l0.1,2.2c0.6-1.4,1.5-2.5,3.3-2.6c2.4-0.1,3.8,1.8,4,4.6l0.4,7.1l-0.9,0l-0.4-6.9
		c-0.1-2.4-1.3-3.9-3.2-3.8c-1.8,0.1-3.2,1.9-3,4.3l0.4,6.7l-0.9,0L449.8,312.7z"/>
	<path d="M461.8,318.6L461.8,318.6c-0.2-3.8,2-6.2,4.2-6.4c1.9-0.1,3.2,1.2,4,2.6l-0.4-7.5l0.9,0l0.9,16.6l-0.9,0l-0.1-2.6
		c-0.7,1.6-1.9,3-3.7,3.1C464.4,324.5,462,322.4,461.8,318.6z M470.3,318.1L470.3,318.1c-0.2-3-2.1-4.9-4.1-4.8
		c-2,0.1-3.6,2-3.4,5.2l0,0c0.2,3.1,2,4.9,3.9,4.8C468.7,323.2,470.4,321.1,470.3,318.1z"/>
	<path d="M24.7,337.4l9-0.5l0.1,1.1l-8.1,0.4l0.3,6.5l7.3-0.4l0.1,1.1l-7.3,0.4l0.4,7.2l-1,0L24.7,337.4z"/>
	<path d="M37.7,337l1.1-0.1l0.1,1.5l-1.1,0.1L37.7,337z M38,341.5l0.9,0l0.6,11.6l-0.9,0L38,341.5z"/>
	<path d="M43.6,341.6l0.9,0l0.2,3.3c0.6-2.1,2.1-3.7,4-3.7l0.1,1.2l-0.1,0c-2.2,0.1-4,2.2-3.8,6l0.2,4.8l-0.9,0L43.6,341.6z"/>
	<path d="M51.8,351.8l0.5-0.9c1.1,0.9,2.2,1.4,3.4,1.3c1.3-0.1,2.2-1,2.1-2.3l0,0c-0.1-1.4-1.3-1.8-2.6-2.2c-1.6-0.5-3.3-0.9-3.4-3
		l0,0c-0.1-1.9,1.1-3.3,2.9-3.4c1.1-0.1,2.4,0.4,3.4,1.1l-0.4,1c-0.9-0.7-2-1.1-2.9-1c-1.3,0.1-2.1,1-2,2.1l0,0
		c0.1,1.3,1.4,1.7,2.7,2.1c1.5,0.4,3.1,1,3.3,3.1l0,0c0.1,2.1-1.3,3.5-3.1,3.6C54.3,353.4,52.8,352.8,51.8,351.8z"/>
	<path d="M63.2,350.2l-0.4-7.6l-1.4,0.1l-0.1-1l1.4-0.1l-0.2-3.7l0.9,0l0.2,3.7l3.3-0.2l0.1,1l-3.3,0.2l0.4,7.5
		c0.1,1.7,0.9,2.2,2,2.2c0.5,0,0.8-0.2,1.4-0.5l0.1,1c-0.5,0.3-0.9,0.5-1.5,0.5C64.6,353.3,63.3,352.4,63.2,350.2z"/>
	<path d="M84.7,341.3l1-0.1l-3.4,12.2c-0.7,2.5-1.6,3.4-2.9,3.5c-0.7,0-1.2-0.1-1.9-0.4l0.3-1c0.5,0.3,0.9,0.4,1.6,0.3
		c1-0.1,1.6-0.8,2.2-2.9l-5.1-11.3l1-0.1l4.4,10.2L84.7,341.3z"/>
	<path d="M88.9,347.6L88.9,347.6c-0.2-3.3,1.7-6.2,4.5-6.4c2.8-0.1,4.9,2.5,5.1,5.8l0,0c0.2,3.3-1.7,6.2-4.5,6.3
		C91.3,353.5,89.1,350.8,88.9,347.6z M97.6,347.1L97.6,347.1c-0.1-2.8-2-5-4.1-4.9c-2.2,0.1-3.7,2.5-3.6,5.2l0,0
		c0.1,2.8,2,4.9,4.1,4.8C96.3,352.2,97.7,349.9,97.6,347.1z"/>
	<path d="M102.3,348.8l-0.4-7.1l0.9,0l0.4,6.9c0.1,2.4,1.3,3.9,3.2,3.8c1.8-0.1,3.2-1.9,3-4.3l-0.4-6.7l0.9,0l0.6,11.6l-0.9,0
		l-0.1-2.2c-0.6,1.4-1.5,2.5-3.2,2.6C104,353.5,102.5,351.6,102.3,348.8z"/>
	<path d="M120.3,341.9l1-0.1l3.4,10.1l2.3-10.4l0.7,0l3.4,10.1l2.3-10.3l1-0.1l-2.8,11.9l-0.8,0l-3.3-9.8l-2.3,10.1l-0.8,0
		L120.3,341.9z"/>
	<path d="M137.7,350L137.7,350c-0.1-2.5,1.5-3.9,3.9-4c1.3-0.1,2.2,0.1,3.1,0.3l0-0.5c-0.1-2.3-1.3-3.5-3.3-3.4
		c-1.1,0.1-2.1,0.5-2.9,1.1l-0.4-1c1-0.6,2-1.1,3.3-1.2c1.3-0.1,2.3,0.3,3,1.1c0.7,0.7,1.1,1.8,1.1,3.2l0.4,7.2l-0.9,0L145,351
		c-0.6,1.1-1.7,2.3-3.5,2.4C139.8,353.5,137.9,352.4,137.7,350z M144.9,348.6l-0.1-1.3c-0.8-0.2-1.9-0.4-3.2-0.4
		c-2,0.1-3,1.3-2.9,2.9l0,0c0.1,1.7,1.4,2.6,2.9,2.5C143.5,352.3,145,350.7,144.9,348.6z"/>
	<path d="M149.7,341.7l0.9,0l0.1,2.2c0.6-1.4,1.5-2.5,3.2-2.6c2.4-0.1,3.8,1.8,4,4.6l0.4,7.1l-0.9,0l-0.4-6.9
		c-0.1-2.4-1.3-3.9-3.2-3.8c-1.8,0.1-3.2,1.9-3,4.3l0.4,6.7l-0.9,0L149.7,341.7z"/>
	<path d="M162.1,341.7l0.9,0l0.1,2.2c0.6-1.4,1.5-2.5,3.2-2.6c2.4-0.1,3.8,1.8,4,4.6l0.4,7.1l-0.9,0l-0.4-6.9
		c-0.1-2.4-1.3-3.9-3.2-3.8c-1.8,0.1-3.2,1.9-3,4.3l0.4,6.7l-0.9,0L162.1,341.7z"/>
	<path d="M174.1,350L174.1,350c-0.1-2.5,1.5-3.9,3.9-4c1.3-0.1,2.2,0.1,3.1,0.3l0-0.5c-0.1-2.3-1.3-3.5-3.3-3.4
		c-1.1,0.1-2.1,0.5-2.9,1.1l-0.4-1c1-0.6,2-1.1,3.3-1.2c1.3-0.1,2.3,0.3,3,1.1c0.7,0.7,1.1,1.8,1.1,3.2l0.4,7.2l-0.9,0l-0.1-1.9
		c-0.6,1.1-1.7,2.3-3.5,2.4C176.2,353.5,174.3,352.4,174.1,350z M181.3,348.6l-0.1-1.3c-0.8-0.2-1.9-0.4-3.2-0.4
		c-2,0.1-3,1.3-2.9,2.9l0,0c0.1,1.7,1.4,2.6,2.9,2.5C179.9,352.3,181.4,350.7,181.3,348.6z"/>
	<path d="M193.3,355.2l0.5-0.9c1.2,1,2.5,1.5,3.9,1.4c2.1-0.1,3.6-1.7,3.4-4.7l-0.1-1.7c-0.7,1.5-1.9,2.8-3.8,2.9
		c-2.3,0.1-4.6-1.9-4.8-5.2l0,0c-0.2-3.3,2-5.6,4.2-5.7c1.9-0.1,3.2,1.1,4,2.4l-0.1-2.3l0.9,0l0.5,9.8c0.1,1.7-0.3,3-1,4
		c-0.8,1-1.9,1.7-3.3,1.7C196.1,356.9,194.6,356.4,193.3,355.2z M200.9,346.6L200.9,346.6c-0.1-2.7-2.2-4.4-4.1-4.3
		c-2,0.1-3.5,1.9-3.4,4.6l0,0c0.1,2.6,1.9,4.4,3.8,4.2C199.2,351.1,201,349.2,200.9,346.6z"/>
	<path d="M205.7,347.6L205.7,347.6c-0.2-3.3,1.7-6.2,4.5-6.4c2.8-0.1,4.9,2.5,5.1,5.8l0,0c0.2,3.3-1.7,6.2-4.5,6.3
		C208,353.5,205.8,350.8,205.7,347.6z M214.3,347.1L214.3,347.1c-0.1-2.8-2-5-4.1-4.9c-2.2,0.1-3.7,2.5-3.6,5.2l0,0
		c0.1,2.8,2,4.9,4.1,4.8C213,352.2,214.5,349.9,214.3,347.1z"/>
	<path d="M225.4,336.5l0.9,0l0.9,16.6l-0.9,0L225.4,336.5z"/>
	<path d="M230.8,347.5L230.8,347.5c-0.2-3.4,1.6-6.2,4.1-6.3c2.6-0.1,4.4,2.4,4.6,5.9c0,0.2,0,0.3,0,0.5l-7.8,0.4
		c0.3,2.9,2.1,4.5,3.9,4.4c1.5-0.1,2.4-0.9,3.1-2l0.7,0.7c-0.9,1.3-2,2.3-3.8,2.4C233.3,353.5,231,351.2,230.8,347.5z M238.6,346.6
		c-0.3-2.3-1.4-4.4-3.6-4.3c-1.9,0.1-3.2,2.1-3.2,4.7L238.6,346.6z"/>
	<path d="M243.6,342.6l-1.4,0.1l-0.1-1l1.4-0.1l-0.1-1.1c-0.1-1.3,0.2-2.4,0.7-3.1c0.4-0.6,1.1-1,1.9-1c0.6,0,1,0,1.4,0.2l0.1,1
		c-0.5-0.2-0.9-0.2-1.4-0.2c-1.3,0.1-1.8,1.1-1.7,3l0.1,1.1l3.3-0.2l0.1,1l-3.3,0.2l0.6,10.6l-0.9,0L243.6,342.6z"/>
	<path d="M251.7,350.2l-0.4-7.6l-1.4,0.1l-0.1-1l1.4-0.1l-0.2-3.7l0.9,0l0.2,3.7l3.3-0.2l0.1,1l-3.3,0.2l0.4,7.5
		c0.1,1.7,0.9,2.2,2,2.2c0.5,0,0.8-0.2,1.4-0.5l0.1,1c-0.5,0.3-0.9,0.5-1.5,0.5C253.1,353.3,251.9,352.4,251.7,350.2z"/>
	<path d="M265.5,350L265.5,350c-0.1-2.5,1.5-3.9,3.9-4c1.3-0.1,2.2,0.1,3.1,0.3l0-0.5c-0.1-2.3-1.3-3.5-3.3-3.4
		c-1.1,0.1-2.1,0.5-2.9,1.1l-0.4-1c1-0.6,2-1.1,3.3-1.2c1.3-0.1,2.3,0.3,3,1.1c0.7,0.7,1.1,1.8,1.1,3.2l0.4,7.2l-0.9,0l-0.1-1.9
		c-0.6,1.1-1.7,2.3-3.5,2.4C267.6,353.5,265.7,352.4,265.5,350z M272.7,348.6l-0.1-1.3c-0.8-0.2-1.9-0.4-3.2-0.4
		c-2,0.1-3,1.3-2.9,2.9l0,0c0.1,1.7,1.4,2.6,2.9,2.5C271.3,352.3,272.8,350.7,272.7,348.6z"/>
	<path d="M277.5,341.7l0.9,0l0.1,2.2c0.6-1.4,1.5-2.5,3.3-2.6c2.4-0.1,3.8,1.8,4,4.6l0.4,7.1l-0.9,0l-0.4-6.9
		c-0.1-2.4-1.3-3.9-3.2-3.8c-1.8,0.1-3.2,1.9-3,4.3l0.4,6.7l-0.9,0L277.5,341.7z"/>
	<path d="M289.6,347.6L289.6,347.6c-0.2-3.8,2-6.2,4.2-6.4c1.9-0.1,3.2,1.2,4,2.6l-0.4-7.5l0.9,0l0.9,16.6l-0.9,0l-0.1-2.6
		c-0.7,1.6-1.9,3-3.7,3.1C292.2,353.5,289.8,351.4,289.6,347.6z M298.1,347.1L298.1,347.1c-0.2-3-2.1-4.9-4.1-4.8
		c-2,0.1-3.6,2-3.4,5.2l0,0c0.2,3.1,2,4.9,3.9,4.8C296.5,352.2,298.2,350.1,298.1,347.1z"/>
	<path d="M317.1,341.3l1-0.1l-3.4,12.2c-0.7,2.5-1.6,3.4-2.9,3.5c-0.7,0-1.2-0.1-1.9-0.4l0.3-1c0.5,0.3,0.9,0.4,1.6,0.3
		c1-0.1,1.6-0.8,2.2-2.9l-5.1-11.3l1-0.1l4.4,10.2L317.1,341.3z"/>
	<path d="M321.3,347.6L321.3,347.6c-0.2-3.3,1.7-6.2,4.5-6.4c2.8-0.1,4.9,2.5,5.1,5.8l0,0c0.2,3.3-1.7,6.2-4.5,6.3
		C323.7,353.5,321.5,350.8,321.3,347.6z M330,347.1L330,347.1c-0.1-2.8-2-5-4.1-4.9c-2.2,0.1-3.7,2.5-3.6,5.2l0,0
		c0.1,2.8,2,4.9,4.1,4.8C328.7,352.2,330.1,349.9,330,347.1z"/>
	<path d="M334.7,348.8l-0.4-7.1l0.9,0l0.4,6.9c0.1,2.4,1.3,3.9,3.2,3.8c1.8-0.1,3.2-1.9,3-4.3l-0.4-6.7l0.9,0l0.6,11.6l-0.9,0
		l-0.1-2.2c-0.6,1.4-1.5,2.5-3.3,2.6C336.4,353.5,334.9,351.6,334.7,348.8z"/>
	<path d="M352.7,341.9l1-0.1l3.4,10.1l2.3-10.4l0.7,0l3.4,10.1l2.3-10.3l1-0.1l-2.8,11.9l-0.8,0l-3.3-9.8l-2.3,10.1l-0.8,0
		L352.7,341.9z"/>
	<path d="M370.1,350L370.1,350c-0.1-2.5,1.5-3.9,3.9-4c1.3-0.1,2.2,0.1,3.1,0.3l0-0.5c-0.1-2.3-1.3-3.5-3.3-3.4
		c-1.1,0.1-2.1,0.5-2.9,1.1l-0.4-1c1-0.6,2-1.1,3.3-1.2c1.3-0.1,2.3,0.3,3,1.1c0.7,0.7,1.1,1.8,1.1,3.2l0.4,7.2l-0.9,0l-0.1-1.9
		c-0.6,1.1-1.7,2.3-3.5,2.4C372.2,353.5,370.3,352.4,370.1,350z M377.3,348.6l-0.1-1.3c-0.8-0.2-1.9-0.4-3.2-0.4
		c-2,0.1-3,1.3-2.9,2.9l0,0c0.1,1.7,1.4,2.6,2.9,2.5C375.9,352.3,377.4,350.7,377.3,348.6z"/>
	<path d="M382.1,341.7l0.9,0l0.1,2.2c0.6-1.4,1.5-2.5,3.3-2.6c2.4-0.1,3.8,1.8,4,4.6l0.4,7.1l-0.9,0l-0.4-6.9
		c-0.1-2.4-1.3-3.9-3.2-3.8c-1.8,0.1-3.2,1.9-3,4.3l0.4,6.7l-0.9,0L382.1,341.7z"/>
	<path d="M395.5,350.2l-0.4-7.6l-1.4,0.1l-0.1-1l1.4-0.1l-0.2-3.7l0.9,0l0.2,3.7l3.3-0.2l0.1,1l-3.3,0.2l0.4,7.5
		c0.1,1.7,0.9,2.2,2,2.2c0.5,0,0.8-0.2,1.4-0.5l0.1,1c-0.5,0.3-0.9,0.5-1.5,0.5C396.8,353.3,395.6,352.4,395.5,350.2z"/>
	<path d="M410.5,350.2l-0.4-7.6l-1.4,0.1l-0.1-1l1.4-0.1l-0.2-3.7l0.9,0l0.2,3.7l3.3-0.2l0.1,1l-3.3,0.2l0.4,7.5
		c0.1,1.7,0.9,2.2,2,2.2c0.5,0,0.8-0.2,1.4-0.5l0.1,1c-0.5,0.3-0.9,0.5-1.5,0.5C411.9,353.3,410.7,352.4,410.5,350.2z"/>
	<path d="M417.7,347.6L417.7,347.6c-0.2-3.3,1.7-6.2,4.5-6.4c2.8-0.1,4.9,2.5,5.1,5.8l0,0c0.2,3.3-1.7,6.2-4.5,6.3
		C420.1,353.5,417.9,350.8,417.7,347.6z M426.4,347.1L426.4,347.1c-0.1-2.8-2-5-4.1-4.9c-2.2,0.1-3.7,2.5-3.6,5.2l0,0
		c0.1,2.8,2,4.9,4.1,4.8C425,352.2,426.5,349.9,426.4,347.1z"/>
	<path d="M438.5,350.2l-0.4-7.6l-1.4,0.1l-0.1-1l1.4-0.1l-0.2-3.7l0.9,0l0.2,3.7l3.3-0.2l0.1,1l-3.3,0.2l0.4,7.5
		c0.1,1.7,0.9,2.2,2,2.2c0.5,0,0.8-0.2,1.4-0.5l0.1,1c-0.5,0.3-0.9,0.5-1.5,0.5C439.8,353.3,438.6,352.4,438.5,350.2z"/>
	<path d="M446.2,348.8l-0.4-7.1l0.9,0l0.4,6.9c0.1,2.4,1.3,3.9,3.2,3.8c1.8-0.1,3.2-1.9,3-4.3l-0.4-6.7l0.9,0l0.6,11.6l-0.9,0
		l-0.1-2.2c-0.6,1.4-1.5,2.5-3.3,2.6C447.8,353.5,446.3,351.6,446.2,348.8z"/>
	<path d="M458.4,341.6l0.9,0l0.2,3.3c0.6-2.1,2.1-3.7,4-3.7l0.1,1.2l-0.1,0c-2.2,0.1-4,2.2-3.8,6l0.2,4.8l-0.9,0L458.4,341.6z"/>
	<path d="M466.8,341.7l0.9,0l0.1,2.2c0.6-1.4,1.5-2.5,3.3-2.6c2.4-0.1,3.8,1.8,4,4.6l0.4,7.1l-0.9,0l-0.4-6.9
		c-0.1-2.4-1.3-3.9-3.2-3.8c-1.8,0.1-3.2,1.9-3,4.3l0.4,6.7l-0.9,0L466.8,341.7z"/>
	<path class="st1" d="M487,341.4l1.4-0.1l-0.5,3.1c1-2.1,2.4-3.6,4.3-3.5l-0.3,1.9l-0.1,0c-2.1,0.1-4,2.1-4.6,5.7l-0.8,4.7l-1.4,0.1
		L487,341.4z"/>
	<path class="st1" d="M495.6,341.3l1.4-0.1l-1.9,11.9l-1.4,0.1L495.6,341.3z M496.3,336.7l1.6-0.1l-0.3,2l-1.6,0.1L496.3,336.7z"/>
	<path class="st1" d="M499.1,355.1l0.8-1.3c1.1,1,2.4,1.7,3.8,1.6c1.2-0.1,2.1-0.6,2.6-1.3c0.6-0.7,0.8-1.7,1-2.9l0.2-1.2
		c-0.9,1.3-2,2.2-3.5,2.3c-2,0.1-3.9-1.4-4.1-4.2c-0.1-1.9,0.5-3.6,1.4-4.8c0.9-1.3,2.3-2.1,3.6-2.2c2-0.1,3,1.3,3.6,2.6l0.4-2.6
		l1.4-0.1l-1.6,10.2c-0.3,1.8-0.7,2.9-1.3,3.8c-0.8,1.1-2,1.8-3.6,1.9C502.1,357,500.3,356.3,499.1,355.1z M507.2,349
		c0.7-0.9,1-2.1,1-3.2c-0.1-1.7-1.3-3.3-3.1-3.2c-1,0.1-2,0.6-2.7,1.6c-0.7,0.9-1.1,2.1-1,3.5c0.1,2.1,1.5,3.1,2.9,3
		C505.5,350.7,506.5,350,507.2,349z"/>
	<path class="st1" d="M515.5,336.6l1.4-0.1l-1.1,6.8c0.8-1.3,1.7-2.3,3.2-2.3c1.8-0.1,3.1,1.3,3.2,3.5c0,0.5,0,1.2-0.1,1.8l-1.1,6.6
		l-1.4,0.1l1.1-6.7c0.1-0.4,0.1-0.9,0.1-1.3c-0.1-1.5-0.9-2.4-2.3-2.3c-1.5,0.1-2.9,1.7-3.2,4l-1.1,6.7l-1.4,0.1L515.5,336.6z"/>
	<path class="st1" d="M526.3,350.9c0-0.4,0-0.9,0.1-1.3l1.2-7.5l-1.4,0.1l0.3-1.7l1.4-0.1l0.6-3.9l1.5-0.1l-0.6,3.9l3.2-0.2
		l-0.3,1.7l-3.2,0.2l-1.2,7.4c0,0.3,0,0.7,0,0.9c0,0.9,0.6,1.3,1.5,1.2c0.5,0,0.9-0.2,1.5-0.5l-0.3,1.7c-0.5,0.3-1,0.4-1.6,0.5
		C527.5,353.4,526.4,352.6,526.3,350.9z"/>
</g>
<g>
	<path class="st2" d="M45.1,176.5l-0.7-1.3c-0.4-0.8-0.9-1.3-1.4-1.5c-1-0.4-1.5-1-1.5-1.8c-0.1-1.6,2.4-2.6,7.6-2.9
		c2.6-0.1,4.5,0,5.9,0.3c0.5,0.1,0.8,0.3,1.1,0.6c0.3,0.3,0.4,0.6,0.5,1c0,0.3,0,0.6-0.2,0.7c-0.1,0.2-0.5,0.5-1,1
		c-0.3,0.3-0.5,0.6-0.5,0.9c0,0.4,0.3,1.2,0.9,2.2l1.3,2.3c0.6,1,1,1.7,1.2,2c0.2,0.3,0.5,0.4,0.8,0.4c0.3,0,0.6-0.2,0.8-0.5
		c0.2-0.3,0.5-1,0.7-2l0.8-2.7c0.2-0.8,0.3-1.4,0.3-1.7c0-0.5-0.3-0.8-0.9-1c-1.1-0.3-1.7-0.9-1.8-1.8c0-0.8,0.4-1.3,1.2-1.7
		c0.8-0.4,2.3-0.6,4.3-0.7c1.3-0.1,2.3,0,3,0.3c1,0.3,1.6,0.9,1.6,1.8c0,0.4-0.1,0.7-0.2,1s-0.5,0.7-1,1.1c-0.3,0.3-0.6,0.6-0.8,1
		c-0.2,0.3-0.4,1-0.8,2.1l-3,9.1c-1.5,4.3-2.5,6.8-2.8,7.6c-0.3,0.8-0.7,1.5-1,2.2c-0.3,0.5-0.6,0.8-0.9,1c-0.4,0.2-0.8,0.3-1.4,0.4
		c-0.8,0-1.5-0.1-2-0.4c-0.5-0.3-0.9-0.8-1.3-1.6l-4.4-8.8c-0.2-0.5-0.4-0.8-0.5-0.9c-0.1-0.1-0.3-0.2-0.5-0.2
		c-0.3,0-0.5,0.2-0.7,0.5c-0.2,0.3-0.5,1.2-1,2.5l-2.4,6.6c-0.4,1.2-0.9,2-1.3,2.4s-1.1,0.6-2.1,0.7c-0.8,0-1.5-0.1-2-0.5
		c-0.5-0.4-1-1-1.4-2l-8.3-17.7c-0.3-0.7-0.6-1.2-0.7-1.3c-0.1-0.1-0.5-0.3-1.1-0.6c-0.7-0.3-1.1-0.8-1.1-1.6
		c-0.1-1.8,2.2-2.8,6.9-3.1c2.4-0.1,4.1-0.1,5.2,0.2c1,0.3,1.6,0.9,1.6,1.8c0,0.3,0,0.5,0,0.6c0,0.1-0.2,0.4-0.5,0.9
		c-0.1,0.3-0.2,0.6-0.2,0.9c0,0.6,0.6,1.9,1.6,3.9l0.9,1.8c0.4,0.8,0.6,1.2,0.8,1.4c0.1,0.2,0.3,0.2,0.5,0.2c0.5,0,1-0.8,1.5-2.2
		l0.7-2.2c0.1-0.2,0.1-0.3,0.1-0.4C45.2,176.8,45.2,176.7,45.1,176.5z"/>
	<path class="st2" d="M79,169.5c4.2-0.2,6.3,0.5,6.4,2.2c0,0.4-0.1,0.8-0.3,1.1c-0.2,0.3-0.6,0.6-1.2,1c-0.5,0.3-0.8,0.8-0.9,1.3
		s-0.1,1.5-0.1,3c0,0.9,0.2,1.4,0.6,1.6c0.2,0.1,0.5,0.2,0.9,0.2c0.4,0,1.4,0,2.9-0.1c1.4-0.1,2.2-0.2,2.6-0.3
		c0.3-0.2,0.5-0.5,0.4-1.1c-0.1-1.7-0.2-2.9-0.4-3.5s-0.5-1.1-1-1.3c-0.6-0.3-1-0.5-1.2-0.8c-0.2-0.2-0.3-0.5-0.3-0.9
		c0-0.5,0.2-1,0.5-1.5c0.4-0.5,0.9-0.8,1.6-1c1.4-0.4,3.1-0.6,5.2-0.8c2.5-0.1,4.3,0,5.5,0.4c1.2,0.4,1.8,1,1.9,1.9
		c0,0.8-0.3,1.4-1.2,1.8c-0.5,0.3-0.8,0.5-1,0.7s-0.3,0.6-0.3,1.2c0,0.3,0,1.7,0,4.3s0.1,4.5,0.2,6c0.1,2.6,0.3,4.2,0.6,4.9
		c0.1,0.4,0.3,0.6,0.4,0.7c0.1,0.1,0.6,0.4,1.3,0.7c0.5,0.2,0.8,0.6,0.8,1.2c0.1,1-0.5,1.7-1.7,2.2c-1.2,0.5-3.1,0.8-5.8,1
		c-2.4,0.1-4.1,0-5.3-0.4c-1-0.4-1.6-1-1.6-1.8c0-0.7,0.3-1.3,1.1-1.8c0.4-0.2,0.6-0.4,0.8-0.7c0.1-0.2,0.2-0.6,0.4-1.2
		c0.2-1.1,0.2-2.4,0.2-4c0-0.8-0.2-1.3-0.4-1.5c-0.3-0.2-0.9-0.2-1.9-0.2c-2.4,0.1-3.9,0.3-4.5,0.6c-0.3,0.1-0.4,0.4-0.5,0.9
		c0,0.6,0,1.4,0,2.3c0.1,1.5,0.3,2.5,0.8,3.1c0.2,0.2,0.5,0.4,1.1,0.7c0.6,0.3,0.9,0.8,0.9,1.5c0,0.9-0.6,1.6-1.8,2.2
		c-1.3,0.5-3.1,0.9-5.5,1c-2.2,0.1-4,0-5.4-0.4c-0.6-0.2-1.1-0.4-1.5-0.7c-0.4-0.3-0.5-0.7-0.6-1.1c0-0.4,0.1-0.8,0.3-1
		c0.2-0.2,0.7-0.6,1.4-1c0.4-0.2,0.6-0.4,0.8-0.7c0.1-0.3,0.2-0.8,0.3-1.4c0.1-1.5,0.1-3.5,0-5.9c0-0.4-0.1-1-0.1-1.6
		c-0.2-3.1-0.3-4.8-0.4-5.3c0-1.1-0.2-1.8-0.4-2.2c-0.2-0.3-0.8-0.7-1.7-1.1c-0.6-0.2-0.9-0.6-0.9-1.2c-0.1-1.3,1.2-2.3,3.8-2.9
		C75.9,169.8,77.4,169.6,79,169.5z"/>
	<path class="st2" d="M130.7,182l4.2,7.6c0.4,0.7,0.7,1.2,1,1.4c0.3,0.2,0.6,0.3,1.1,0.4c1,0.1,1.5,0.5,1.5,1.3
		c0,0.9-0.5,1.6-1.7,2.1c-1.2,0.5-3.1,0.8-5.7,0.9c-3,0.2-5.3,0.2-6.7,0c-0.7-0.1-1.2-0.3-1.6-0.6c-0.4-0.3-0.6-0.7-0.7-1.2
		c0-0.4,0.1-0.7,0.3-0.9c0.2-0.2,0.6-0.4,1.1-0.6c0.6-0.2,0.9-0.6,0.9-1.1c0-0.9-0.6-1.3-1.7-1.4c-1.2-0.1-2.8-0.1-4.9,0
		c-1.8,0.1-2.8,0.3-3.2,0.5c-0.2,0.1-0.4,0.4-0.5,0.7c-0.1,0.3-0.2,0.7-0.2,1c0,0.3,0.1,0.5,0.2,0.5c0.1,0.1,0.5,0.2,1.1,0.4
		c0.8,0.2,1.3,0.6,1.3,1.3c0.1,1.5-1.8,2.4-5.6,2.6c-2.2,0.1-3.8,0.1-4.8-0.2c-0.9-0.2-1.4-0.8-1.5-1.7c0-0.4,0.1-0.7,0.3-0.9
		c0.2-0.2,0.6-0.4,1.1-0.7c0.9-0.3,1.5-0.8,1.9-1.3c0.4-0.6,1-1.7,1.7-3.5l2.5-6.1c0.9-2.2,1.5-3.9,1.8-5c0.3-1.1,0.4-2.2,0.4-3.2
		c0-1.1,0-1.9,0.1-2.3c0.1-0.4,0.4-0.9,0.8-1.3c0.9-0.9,2-1.5,3.5-1.5c1.3-0.1,2.7,0.4,3.9,1.3C124.4,171.6,127.1,175.5,130.7,182z
		 M116.9,185.2l3.9-0.2c0.7,0,1.1-0.2,1.1-0.5c0-0.4-0.6-1.4-1.7-3c-0.5-0.7-0.9-1.2-1.1-1.5s-0.5-0.4-0.8-0.3
		c-0.5,0-0.9,0.5-1.1,1.3c0,0.1-0.2,0.6-0.5,1.4c-0.5,1.3-0.7,2.1-0.7,2.4C116,185,116.3,185.2,116.9,185.2z"/>
	<path class="st2" d="M146.7,169.8l10.5-0.6c1.1-0.1,2.2-0.3,3.1-0.6c0.4-0.1,0.7-0.2,1.1-0.2c1.1-0.1,2.2,0.7,3.3,2.1
		s1.7,3,1.8,4.7c0.1,1.1-0.3,1.9-0.9,2.5c-0.5,0.4-1.1,0.6-1.9,0.7c-0.7,0-1.3-0.1-1.9-0.5s-1.1-0.9-1.6-1.8
		c-0.5-0.8-0.9-1.3-1.1-1.5c-0.3-0.2-0.6-0.3-0.9-0.3c-0.5,0-0.8,0.2-1,0.7c-0.2,0.4-0.3,1.1-0.2,2l0.6,10.8
		c0.1,1.1,0.2,1.9,0.5,2.4c0.3,0.5,0.7,0.8,1.4,1.1c0.7,0.3,1.2,0.5,1.5,0.8c0.3,0.2,0.4,0.6,0.4,1.1c0,0.9-0.6,1.6-1.8,2.2
		c-1.3,0.5-3.3,0.8-6,1c-3.3,0.2-5.8,0-7.4-0.4c-1.4-0.4-2.1-1-2.1-2c0-0.5,0.2-0.9,0.7-1.3c0.1-0.1,0.6-0.2,1.4-0.5
		c0.5-0.2,0.8-0.5,1-0.9c0.2-0.4,0.3-1.2,0.4-2.3c0.1-1,0.1-2.6,0-4.9s-0.1-4.2-0.2-5.8c-0.1-1.2-0.2-2-0.4-2.4
		c-0.2-0.5-0.5-0.7-1-0.7c-0.5,0-1,0.4-1.5,1.2c-0.8,1.4-1.5,2.3-2.1,2.7c-0.7,0.5-1.3,0.8-1.9,0.9c-0.7,0-1.3-0.2-1.8-0.7
		s-0.8-1.1-0.8-2c0-0.8,0.1-1.7,0.4-2.7c0.3-1,0.8-1.9,1.4-2.7c0.9-1.4,1.9-2.1,2.9-2.1c0.3,0,0.6,0,0.9,0.1
		c0.7,0.1,1.3,0.2,1.8,0.2S146.1,169.9,146.7,169.8z"/>
	<path class="st2" d="M190.2,196.2l-1.4,0.1c-0.8,0-1.8,0.1-2.8,0.3c-0.7,0.1-1.1,0.1-1.4,0.1c-0.9,0-1.6-0.1-2.2-0.5
		s-0.9-0.9-0.9-1.5c0-0.4,0.1-0.8,0.3-1.1s0.6-0.5,1.2-0.7c0.5-0.2,0.9-0.4,1-0.7s0.3-0.9,0.4-1.7c0.1-1,0.1-2.8,0-5.6
		c-0.1-2.8-0.2-5.5-0.3-8.3c-0.1-1.1-0.2-1.8-0.4-2.1c-0.2-0.3-0.6-0.6-1.3-0.8c-0.9-0.3-1.4-0.8-1.5-1.6c0-0.6,0.3-1.1,0.9-1.5
		c0.6-0.4,1.5-0.6,2.6-0.7c0.4,0,0.8,0,1.3,0c1.1,0,1.9,0,2.4-0.1c1.9-0.1,4.1-0.3,6.5-0.5c0.5-0.1,1.1-0.1,1.9-0.1
		c3.1-0.2,5.5,0,7.3,0.6c2.7,0.9,4.8,2.4,6.2,4.7c1.3,2,2,4.5,2.2,7.3c0.1,1.4-0.1,2.9-0.4,4.4c-0.4,1.5-0.9,2.8-1.6,3.9
		c-1.4,2.2-3.5,3.9-6.2,4.9c-1.6,0.6-3.3,0.9-5.1,1l-2.4,0.1l-2.1,0.1C192.9,196.1,191.5,196.1,190.2,196.2z M193.3,175.1l0.8,14.9
		c0,0.8,0.3,1.4,0.6,1.7c0.4,0.3,1,0.5,1.8,0.4c3.9-0.2,5.7-3.1,5.4-8.8c-0.2-3.1-0.7-5.5-1.7-7.2c-1.1-1.9-2.8-2.7-5.2-2.6
		c-0.6,0-1.1,0.2-1.3,0.4C193.4,174.1,193.3,174.6,193.3,175.1z"/>
	<path class="st2" d="M229.6,169c3.4-0.2,6.5,0.6,9.1,2.4c1.8,1.2,3.3,2.8,4.5,4.8c1.2,2,1.8,4,1.9,6.1c0.2,3-0.7,5.8-2.7,8.3
		c-1.7,2.1-3.9,3.7-6.7,4.7c-1.7,0.6-3.5,1-5.2,1.1c-2.3,0.1-4.5-0.2-6.7-1c-2.6-1-4.7-2.6-6.2-4.7c-1.5-2.1-2.3-4.5-2.5-7.1
		c-0.2-3,0.6-5.8,2.3-8.2c1.5-2.2,3.6-3.8,6.2-4.9C225.3,169.6,227.3,169.1,229.6,169z M227.9,174.6c-1.1,0.1-2,0.6-2.6,1.6
		c-0.5,0.7-0.7,1.6-0.6,2.6c0.1,1.4,0.5,3.1,1.2,5c0.7,1.9,1.6,3.5,2.6,4.9c0.4,0.6,1,1.1,1.6,1.4c0.6,0.3,1.3,0.5,1.9,0.5
		c1-0.1,1.8-0.5,2.4-1.2c0.6-0.8,0.8-1.7,0.8-2.9c-0.1-1.5-0.4-3.2-1-5c-0.6-1.8-1.4-3.3-2.3-4.5c-0.5-0.8-1.2-1.3-1.9-1.8
		C229.3,174.8,228.6,174.6,227.9,174.6z"/>
	<path class="st2" d="M267.7,169.5c2.6-0.1,4.6-0.1,6,0.1c0.6,0.1,1.1,0.3,1.5,0.6c0.4,0.3,0.6,0.7,0.6,1.1c0,0.3-0.1,0.7-0.4,1
		c-0.4,0.5-0.6,0.9-0.6,1.2c0,0.5,0.4,1.2,1.3,2.1c0.5,0.6,1,0.9,1.5,0.9c0.3,0,0.5-0.1,0.8-0.3c0.3-0.2,0.6-0.6,1-1.1
		c0.5-0.7,0.7-1.2,0.7-1.5c0-0.2-0.1-0.4-0.1-0.5c-0.1-0.1-0.3-0.4-0.7-0.8c-0.3-0.3-0.4-0.7-0.5-1.2c-0.1-1.4,1.9-2.3,6-2.5
		c2.3-0.1,3.8-0.1,4.5,0.1c0.4,0.1,0.8,0.3,1.1,0.7s0.5,0.7,0.5,1.1c0,0.5-0.1,0.9-0.4,1.2c-0.3,0.3-0.9,0.5-1.7,0.7
		c-0.8,0.2-1.4,0.5-1.9,0.9c-0.5,0.4-1.5,1.5-2.9,3.1c-1.7,2-2.8,3.4-3.2,4.3c-0.4,0.9-0.6,2.3-0.5,4c0.1,1.5,0.2,2.9,0.4,4.1
		c0.1,0.8,0.3,1.3,0.5,1.6c0.2,0.3,0.6,0.6,1.2,0.8c1,0.4,1.5,1,1.6,1.7c0.1,1.7-2.5,2.8-7.9,3c-2.2,0.1-4.3,0-6.3-0.3
		c-1.7-0.3-2.5-0.9-2.6-1.9c0-0.8,0.4-1.4,1.4-1.8c0.7-0.3,1.2-0.6,1.4-1.1c0.4-0.9,0.5-3,0.3-6.3c-0.1-1-0.2-1.8-0.4-2.4
		c-0.2-0.6-0.7-1.3-1.5-2.1c-1.6-1.8-3.2-3.4-4.9-4.8c-0.7-0.6-1.4-1-2.1-1.2c-0.9-0.3-1.5-0.5-1.7-0.6c-0.4-0.3-0.6-0.7-0.6-1.2
		c0-0.9,0.6-1.5,1.9-2S264.5,169.7,267.7,169.5z"/>
	<path class="st2" d="M307.9,169c3.4-0.2,6.5,0.6,9.1,2.4c1.8,1.2,3.3,2.8,4.5,4.8c1.2,2,1.8,4,1.9,6.1c0.2,3-0.7,5.8-2.7,8.3
		c-1.7,2.1-3.9,3.7-6.7,4.7c-1.7,0.6-3.5,1-5.2,1.1c-2.3,0.1-4.5-0.2-6.7-1c-2.6-1-4.7-2.6-6.2-4.7c-1.5-2.1-2.3-4.5-2.5-7.1
		c-0.2-3,0.6-5.8,2.3-8.2c1.5-2.2,3.6-3.8,6.2-4.9C303.7,169.6,305.7,169.1,307.9,169z M306.3,174.6c-1.1,0.1-2,0.6-2.6,1.6
		c-0.5,0.7-0.7,1.6-0.6,2.6c0.1,1.4,0.5,3.1,1.2,5c0.7,1.9,1.6,3.5,2.6,4.9c0.4,0.6,1,1.1,1.6,1.4c0.6,0.3,1.3,0.5,1.9,0.5
		c1-0.1,1.8-0.5,2.4-1.2c0.6-0.8,0.8-1.7,0.8-2.9c-0.1-1.5-0.4-3.2-1-5c-0.6-1.8-1.4-3.3-2.3-4.5c-0.5-0.8-1.2-1.3-1.9-1.8
		C307.7,174.8,307,174.6,306.3,174.6z"/>
	<path class="st2" d="M355.2,178.5l0.2,4.7c0.1,2.8,0,4.8-0.3,6c-0.8,2.5-2.8,4.4-6,5.7c-1.9,0.8-4.1,1.3-6.5,1.4
		c-4.3,0.2-7.8-0.6-10.4-2.4c-1.3-0.9-2.2-2-2.8-3.2c-0.5-1.2-0.9-3.1-1-5.5c0-0.9-0.1-2.5-0.1-4.6c0-1.5-0.1-2.5-0.1-3
		c-0.1-1.1-0.2-1.8-0.4-2.2s-0.6-0.8-1.2-1.1c-0.9-0.5-1.4-1.1-1.4-1.8c0-0.5,0.2-1,0.6-1.4c0.4-0.4,1-0.7,1.7-0.9
		c1.5-0.4,3.2-0.6,5.2-0.7c2.2-0.1,4-0.1,5.5,0.2c1.4,0.2,2.2,0.9,2.3,2c0,0.5-0.2,1-0.6,1.3c-0.1,0.1-0.5,0.3-1.2,0.7
		c-0.4,0.2-0.7,0.5-0.8,1c-0.1,0.5-0.2,1.3-0.1,2.4c0.1,1.1,0.1,3.5,0.2,7.2c0,2.2,0.8,3.9,2.1,4.9c1.1,0.9,2.5,1.3,4.2,1.2
		c1.1-0.1,2-0.3,2.9-0.7c0.8-0.4,1.5-1,1.9-1.6c0.3-0.5,0.6-1.1,0.7-1.7c0.1-0.6,0.1-1.5,0.1-2.5l-0.2-4.2c-0.2-3.2-0.4-5.1-0.6-5.7
		c-0.2-0.6-0.6-1-1.4-1.2c-0.7-0.3-1.2-0.5-1.5-0.7s-0.4-0.5-0.4-0.9c0-0.8,0.4-1.4,1.3-1.8s2.5-0.7,4.6-0.8c2.1-0.1,3.6,0,4.5,0.3
		c0.9,0.3,1.4,0.8,1.5,1.6c0,0.4,0,0.7-0.2,0.8c-0.2,0.2-0.6,0.5-1.2,0.9c-0.7,0.4-1.1,0.9-1.1,1.3C355,174,355.1,175.6,355.2,178.5
		z"/>
	<path class="st3" d="M393.4,187.7l-2.1,5.3c-0.4,0.9-0.7,1.5-0.9,1.8c-0.2,0.3-0.5,0.5-0.8,0.5c-0.3,0-0.6-0.1-0.8-0.3
		c-0.2-0.1-0.5-0.7-1.1-1.6c-0.6-0.9-1.1-1.8-1.4-2.5l-2.9-5.6c-0.4-0.8-0.8-1.2-1.2-1.1c-0.4,0-0.6,0.4-0.6,1.1
		c0,1.5,0,2.9,0.1,4.2c0.1,1.3,0.2,2.2,0.3,2.7c0.1,0.3,0.2,0.5,0.4,0.6c0.2,0.1,0.6,0.3,1.3,0.6c0.5,0.2,0.7,0.6,0.7,1.1
		c0.1,1.4-1.8,2.3-5.6,2.5c-3.2,0.2-4.9-0.4-5-1.8c0-0.4,0.1-0.6,0.2-0.8c0.2-0.2,0.6-0.4,1.3-0.8c0.4-0.2,0.7-0.5,0.8-0.8
		c0.1-0.3,0.2-1,0.3-2c0.1-1,0.1-2.7,0.1-5.1c0-2.3-0.1-4.3-0.2-6c-0.1-2.1-0.4-3.5-0.7-4.2c-0.1-0.2-0.3-0.4-0.4-0.6
		s-0.5-0.3-0.9-0.5c-1-0.4-1.5-0.9-1.5-1.6c0-0.4,0.1-0.9,0.5-1.3c0.3-0.4,0.8-0.7,1.4-0.9c0.6-0.2,1.4-0.4,2.3-0.6
		c1-0.2,1.8-0.3,2.5-0.3c1.7-0.1,2.9,0,3.6,0.2c0.4,0.1,0.6,0.3,0.8,0.5c0.2,0.2,0.5,0.6,0.9,1.3l4.5,7.1c0.5,0.8,0.8,1.3,1,1.4
		c0.2,0.2,0.4,0.2,0.7,0.2c0.3,0,0.5-0.1,0.7-0.3c0.2-0.2,0.4-0.6,0.7-1.1l2.5-5.4c0.3-0.7,0.5-1.2,0.6-1.4c0.6-1.3,1.2-2.2,1.8-2.7
		c0.8-0.6,2.3-0.9,4.4-1.1c3.8-0.2,5.7,0.5,5.8,2.2c0,0.4,0,0.7-0.2,0.9c-0.1,0.2-0.4,0.5-0.9,0.9c-0.6,0.5-0.9,1.1-1.1,2
		c-0.2,1.8-0.3,3.9-0.1,6.5c0.2,3.3,0.5,6.1,0.9,8.6c0.1,0.6,0.3,1,0.4,1.2c0.2,0.2,0.6,0.5,1.3,0.9c0.5,0.3,0.8,0.7,0.8,1.2
		c0,0.9-0.5,1.6-1.8,2c-0.6,0.2-1.3,0.4-2,0.5c-0.7,0.1-1.8,0.2-3.3,0.3c-2.3,0.1-3.9,0.1-5.1-0.2c-1.2-0.3-1.9-0.8-1.9-1.7
		c0-0.3,0.1-0.6,0.2-0.8c0.2-0.2,0.5-0.6,1.2-1.1c0.3-0.3,0.5-0.8,0.6-1.6c0.1-0.8,0.1-2.1,0-3.9c-0.1-1-0.1-1.7-0.3-2
		c-0.1-0.3-0.3-0.5-0.7-0.4c-0.4,0-0.7,0.3-1,0.8S394,186.2,393.4,187.7z"/>
	<path class="st3" d="M413.8,170.1l10.3-0.5c2.1-0.1,3.6-0.2,4.5-0.4c1-0.1,1.9-0.4,2.8-0.7c0.3-0.1,0.5-0.1,0.7-0.1
		c0.7,0,1.3,0.3,1.9,1c0.9,1.1,1.5,2.5,1.5,4.2c0,0.8-0.1,1.5-0.4,2s-0.8,0.8-1.5,0.8c-0.4,0-0.8,0-1-0.2c-0.3-0.2-0.6-0.5-1.1-1.1
		c-0.6-0.8-1.4-1.4-2.3-1.6c-0.9-0.2-2.4-0.3-4.5-0.2c-1.5,0.1-2.5,0.4-2.8,0.9c-0.2,0.3-0.2,0.7-0.2,1.1c0,0.5,0,1.7,0.1,3.6
		c0,0.8,0.2,1.2,0.5,1.4c0.3,0.2,1,0.2,2.1,0.2c0.6,0,1-0.2,1.2-0.4c0.2-0.2,0.4-0.6,0.4-1.2c0.1-0.7,0.1-1.3,0.2-1.5
		c0.1-0.3,0.3-0.5,0.5-0.7c0.3-0.2,0.6-0.4,1-0.4c0.5,0,1,0.2,1.4,0.7c0.3,0.4,0.6,1,0.8,1.9c0.2,0.9,0.4,1.9,0.4,2.9
		c0.1,2-0.1,3.7-0.7,5c-0.3,0.7-0.9,1.1-1.6,1.1c-0.5,0-0.8-0.1-1-0.3c-0.2-0.2-0.3-0.7-0.5-1.4c-0.3-1.4-1.2-2.1-2.8-2
		c-0.6,0-1,0.2-1.2,0.6s-0.3,1.1-0.2,2c0,0.6,0.1,1.4,0.3,2.3s0.3,1.6,0.4,1.9c0.1,0.4,0.5,0.6,1,0.7s1.5,0.1,2.8,0.1
		c2-0.1,3.5-0.4,4.5-1s1.8-1.5,2.3-2.8c0.3-0.8,0.6-1.3,0.9-1.6c0.3-0.3,0.7-0.4,1.2-0.4c0.6,0,1,0.2,1.4,0.6c0.4,0.4,0.6,1,0.6,1.7
		c0,0.8-0.1,1.7-0.5,2.9c-0.4,1.2-0.8,2.2-1.4,3.2c-0.3,0.5-0.5,0.8-0.7,0.9s-0.4,0.2-0.7,0.3c-0.3,0-0.6,0-1.1-0.1
		c-0.9-0.1-2-0.1-3.4-0.1l-17,0.9c-0.7,0-1.2-0.1-1.6-0.3s-0.6-0.7-0.6-1.2c0-0.4,0-0.6,0.2-0.8s0.5-0.4,1.1-0.7
		c0.4-0.2,0.7-0.4,0.9-0.7c0.2-0.3,0.3-0.6,0.4-1.1c0.3-2,0.4-4.6,0.2-7.9c-0.3-4.9-0.7-8-1.5-9.3c-0.1-0.2-0.3-0.4-0.5-0.5
		s-0.5-0.2-1-0.3c-0.8-0.2-1.2-0.6-1.2-1.4c0-0.4,0.1-0.8,0.3-1.1c0.2-0.3,0.6-0.6,1-0.7C411.3,170.2,412.3,170.1,413.8,170.1z"/>
	<path class="st3" d="M465.4,182l4.2,7.6c0.4,0.7,0.7,1.2,1,1.4c0.3,0.2,0.6,0.3,1.1,0.4c1,0.1,1.5,0.5,1.5,1.3
		c0,0.9-0.5,1.6-1.7,2.1c-1.2,0.5-3.1,0.8-5.7,0.9c-3,0.2-5.3,0.2-6.7,0c-0.7-0.1-1.2-0.3-1.6-0.6c-0.4-0.3-0.6-0.7-0.7-1.2
		c0-0.4,0.1-0.7,0.3-0.9c0.2-0.2,0.6-0.4,1.1-0.6c0.6-0.2,0.9-0.6,0.9-1.1c0-0.9-0.6-1.3-1.7-1.4c-1.2-0.1-2.8-0.1-4.9,0
		c-1.8,0.1-2.8,0.3-3.2,0.5c-0.2,0.1-0.4,0.4-0.5,0.7s-0.2,0.7-0.2,1c0,0.3,0.1,0.5,0.2,0.5c0.1,0.1,0.5,0.2,1.1,0.4
		c0.8,0.2,1.3,0.6,1.3,1.3c0.1,1.5-1.8,2.4-5.6,2.6c-2.2,0.1-3.8,0.1-4.8-0.2c-0.9-0.2-1.4-0.8-1.5-1.7c0-0.4,0.1-0.7,0.3-0.9
		s0.6-0.4,1.1-0.7c0.9-0.3,1.5-0.8,1.9-1.3c0.4-0.6,1-1.7,1.7-3.5l2.5-6.1c0.9-2.2,1.5-3.9,1.8-5c0.3-1.1,0.4-2.2,0.4-3.2
		c0-1.1,0-1.9,0.1-2.3s0.4-0.9,0.8-1.3c0.9-0.9,2-1.5,3.5-1.5c1.3-0.1,2.7,0.4,3.9,1.3C459.1,171.6,461.8,175.5,465.4,182z
		 M451.6,185.2l3.9-0.2c0.7,0,1.1-0.2,1.1-0.5c0-0.4-0.6-1.4-1.7-3c-0.5-0.7-0.9-1.2-1.1-1.5c-0.3-0.2-0.5-0.4-0.8-0.3
		c-0.5,0-0.9,0.5-1.1,1.3c0,0.1-0.2,0.6-0.5,1.4c-0.5,1.3-0.7,2.1-0.7,2.4C450.7,185,451,185.2,451.6,185.2z"/>
	<path class="st3" d="M484.7,170.8l10.4,7.9c1,0.7,1.7,1.1,2.1,1.1c0.7,0,1-0.8,0.9-2.2c-0.1-1.6-0.2-2.7-0.5-3.3
		c-0.2-0.6-0.7-1-1.3-1.3c-0.5-0.2-0.9-0.5-1.1-0.7s-0.4-0.6-0.4-1c-0.1-1.1,0.7-1.8,2.2-2.2c0.6-0.2,1.7-0.3,3.3-0.4
		c2-0.1,3.4-0.1,4.2,0.1c1.2,0.3,1.9,0.9,1.9,1.9c0,0.8-0.4,1.5-1.4,2c-0.4,0.2-0.7,0.3-0.8,0.5c-0.1,0.1-0.3,0.3-0.4,0.6
		c-0.3,0.9-0.4,2.5-0.3,4.8l0.3,6.3c0.1,1,0.1,2.3,0.2,3.9c0.1,2.3,0.1,3.9-0.2,4.9c-0.3,1.3-0.9,1.9-1.9,2c-0.4,0-0.8,0-1.1-0.2
		c-0.3-0.2-0.8-0.5-1.6-1.1l-12.4-9.6c-0.9-0.7-1.6-1-2.1-1c-0.8,0-1.2,1.1-1.1,3.3c0.1,1.8,0.3,3,0.5,3.6s0.7,1.1,1.3,1.4
		c0.9,0.4,1.4,0.9,1.4,1.6c0.1,1.8-1.9,2.8-5.8,3c-1.8,0.1-3.2-0.1-4.2-0.5c-1-0.4-1.5-1-1.6-1.9c0-0.4,0.1-0.8,0.2-1
		c0.2-0.2,0.6-0.5,1.2-0.9c0.6-0.4,1-1,1-2c0.1-1.7,0.1-4,0-7.1c-0.2-3.3-0.5-5.7-1-7.2c-0.2-0.5-0.4-0.9-0.6-1.2
		c-0.2-0.3-0.6-0.5-1.2-0.7c-0.6-0.3-1-0.5-1.3-0.8c-0.2-0.3-0.4-0.6-0.4-1c-0.1-1.2,1-2.1,3.2-2.5c0.7-0.1,2-0.3,3.9-0.4
		c1.1-0.1,1.8,0,2.3,0.1C483.4,169.9,484,170.2,484.7,170.8z"/>
	<path class="st2" d="M518.3,169.6c1.5-0.1,3,0.1,4.6,0.7c1.6,0.6,2.9,1.4,3.9,2.5c0.9,1.1,1.4,2.2,1.5,3.5c0.1,1.5-0.5,2.8-1.7,3.8
		c-0.3,0.3-1.3,0.9-2.9,1.7c-0.6,0.3-1,0.6-1.3,0.9c-0.3,0.3-0.5,0.6-0.7,1.1c-0.4,1-0.8,1.6-1.1,1.9c-0.3,0.3-0.9,0.4-1.8,0.5
		c-0.8,0-1.4-0.1-1.9-0.6c-0.5-0.4-0.8-1-0.8-1.8c0-0.7,0.1-1.5,0.4-2.3c0.1-0.2,0.6-1,1.4-2.4c0.8-1.3,1.2-2.5,1.1-3.6
		c0-0.6-0.2-1-0.5-1.3c-0.3-0.3-0.6-0.5-1-0.5c-0.4,0-0.7,0.2-0.9,0.4s-0.3,0.7-0.3,1.4c-0.1,1.3-0.5,2.3-1.2,3
		c-0.7,0.7-1.7,1.1-2.9,1.2c-0.9,0-1.6-0.1-2.1-0.6c-0.6-0.5-1-1.1-1-2c-0.1-1.2,0.3-2.5,1.1-3.7c0.8-1.2,1.9-2.1,3.3-2.8
		C515,170.1,516.6,169.7,518.3,169.6z M518.8,188c1.2-0.1,2.2,0.3,3,1.1c0.9,0.8,1.3,1.7,1.4,2.8c0.1,1.1-0.3,2.1-1.1,3
		s-1.8,1.3-3,1.4c-1.2,0.1-2.2-0.3-3-1c-0.9-0.8-1.4-1.8-1.5-3c-0.1-1.1,0.3-2.1,1-2.9C516.4,188.6,517.5,188.1,518.8,188z"/>
</g>
</svg>
